<svg width="26" height="19" viewBox="0 0 26 19" fill="none" xmlns="http://www.w3.org/2000/svg">
<path fill-rule="evenodd" clip-rule="evenodd" d="M23.2955 2.70136C22.0442 -0.736458 15.5593 -0.476986 10.0929 1.51263C4.62683 3.50212 -0.508033 7.47189 0.742864 10.9098L2.76092 16.4544C2.76555 16.4569 2.77009 16.4603 2.77449 16.4633C4.17351 19.7247 10.5311 19.4442 15.9072 17.4874C21.2234 15.5525 26.2237 11.7451 25.3441 8.3754C25.3464 8.36702 25.3493 8.35887 25.3516 8.35049L23.3864 2.95117L23.3732 2.95596C23.3502 2.87102 23.3262 2.78561 23.2955 2.70136ZM23.6373 9.80907L22.4374 6.51241C22.5745 6.32608 22.7009 6.13865 22.8129 5.95056L23.91 8.96489C23.8817 9.06224 23.8507 9.15891 23.8151 9.25222C23.7851 9.42006 23.726 9.60688 23.6373 9.80907ZM14.9592 15.8464L13.6348 12.2075C13.7383 12.1711 13.8421 12.1358 13.9449 12.0984C14.022 12.0703 14.0985 12.0404 14.175 12.0117L15.4995 15.651C15.4227 15.6798 15.3481 15.7115 15.2702 15.7399C15.1653 15.778 15.0634 15.8097 14.9592 15.8464ZM4.32977 16.1889L3.20117 13.0881C3.37851 13.15 3.56314 13.2046 3.7535 13.2533L4.93899 16.5104C4.80335 16.438 4.67807 16.3622 4.57527 16.2799C4.49293 16.2505 4.41118 16.2204 4.32977 16.1889ZM12.6641 12.5254C12.8474 12.4695 13.03 12.4115 13.2122 12.3514L14.5369 15.991C14.3522 16.0524 14.1701 16.1094 13.9889 16.1653L12.6641 12.5254ZM11.6797 12.8066C11.8656 12.7578 12.0507 12.7068 12.2358 12.6536L13.5608 16.2939C13.3731 16.348 13.1882 16.3973 13.0041 16.4455L11.6797 12.8066ZM10.6797 13.0488C10.8674 13.0073 11.0553 12.964 11.2434 12.9177L12.5682 16.5577C12.3765 16.604 12.1899 16.6443 12.003 16.6847L10.6797 13.0488ZM9.66602 13.2498C9.85634 13.2165 10.0471 13.1809 10.2383 13.1423L11.5618 16.7786C11.3661 16.8163 11.1766 16.8472 10.9868 16.8786L9.66602 13.2498ZM8.63477 13.406C8.82745 13.3815 9.02142 13.3548 9.21615 13.3246L10.5349 16.9479C10.3385 16.9758 10.1413 17.0037 9.9518 17.0245L8.63477 13.406ZM7.58594 13.51C7.78202 13.496 7.97926 13.4794 8.17871 13.4587L9.49104 17.0643C9.28691 17.0813 9.08796 17.0943 8.89356 17.1027L7.58594 13.51ZM6.51367 13.5522C6.7136 13.551 6.91491 13.5468 7.11976 13.5375L8.42362 17.1198C8.21315 17.1228 8.00822 17.1216 7.8104 17.115L6.51367 13.5522ZM5.41406 13.5166C5.61758 13.5321 5.82523 13.5419 6.03633 13.5475L7.32431 17.0862C7.10302 17.0696 6.89007 17.0475 6.68886 17.0191L5.41406 13.5166ZM4.27148 13.3682C4.48178 13.408 4.69708 13.4422 4.91968 13.4691L6.17955 16.9306C5.93317 16.8792 5.70718 16.8179 5.5019 16.7487L4.27148 13.3682ZM21.6772 7.41251C21.83 7.25227 21.9757 7.09083 22.1118 6.92789L23.3521 10.3354C23.2401 10.5134 23.1032 10.7014 22.9454 10.8969L21.6772 7.41251ZM20.8707 8.18329C21.0292 8.04441 21.1818 7.90394 21.329 7.76247L22.6108 11.2842C22.4752 11.4314 22.327 11.5829 22.1645 11.7379L20.8707 8.18329ZM20.0318 8.86623C20.1951 8.74277 20.3523 8.61734 20.5067 8.49123L21.8064 12.0621C21.6551 12.1958 21.5033 12.3293 21.3399 12.4604L20.0318 8.86623ZM19.1667 9.48064C19.3329 9.36954 19.496 9.25701 19.6552 9.1426L20.9659 12.7437C20.8087 12.8625 20.6491 12.98 20.4824 13.0955L19.1667 9.48064ZM18.2848 10.041C18.4537 9.93981 18.6204 9.83726 18.7841 9.73293L20.102 13.354C19.9401 13.4607 19.774 13.5651 19.6052 13.6688L18.2848 10.041ZM17.383 10.555C17.5545 10.462 17.7244 10.368 17.8915 10.272L19.2136 13.9046C19.048 14.0012 18.8774 14.0955 18.7059 14.1894L17.383 10.555ZM16.4686 11.0268C16.6425 10.9417 16.8148 10.8543 16.9852 10.7664L18.3097 14.4052C18.1405 14.4932 17.9665 14.5782 17.7923 14.6638L16.4686 11.0268ZM15.5386 11.4578C15.7144 11.38 15.8897 11.3007 16.0634 11.2195L17.3885 14.8602C17.2162 14.9409 17.0394 15.0182 16.8628 15.0959L15.5386 11.4578ZM15.1259 11.6345L16.4508 15.2749C16.2752 15.3484 16.0967 15.4188 15.9174 15.4891L14.5935 11.8517C14.7718 11.781 14.9491 11.7085 15.1259 11.6345ZM3.97333 7.12841C5.59558 5.629 7.99467 4.25528 10.729 3.26007C16.7145 1.08152 21.2985 1.79137 21.8245 3.23664C22.0379 3.82273 21.6881 4.98289 20.0654 6.48244C18.4434 7.98135 16.0441 9.35557 13.3098 10.3508C7.32427 12.5293 2.7404 11.8198 2.21423 10.3742C2.00105 9.78849 2.35108 8.62783 3.97333 7.12841Z" fill="white"/>
</svg>
