<svg width="24" height="24" viewBox="0 0 24 24" fill="none" xmlns="http://www.w3.org/2000/svg">
<path fill-rule="evenodd" clip-rule="evenodd" d="M9.62891 15.3686C9.29058 15.038 8.95324 14.7081 8.61935 14.3816C8.4344 14.8847 8.24206 15.4069 8.03664 15.9658C8.59074 15.7579 9.11722 15.5604 9.62891 15.3686ZM11.7323 14.3455C11.9955 14.3848 12.2601 14.4233 12.5254 14.4342C12.7592 14.4437 12.9949 14.4143 13.2198 14.4027C13.1702 12.5776 13.8891 11.2152 15.6677 10.6512C17.2817 10.1398 18.6234 10.6947 19.6609 12.0654C19.9918 11.8072 20.342 11.5633 20.6588 11.282C21.5303 10.5085 22.1046 9.54925 22.2402 8.39054C22.4474 6.62484 22.0023 5.0301 20.7728 3.70779C19.9129 2.78343 18.8814 2.10004 17.6274 1.83597C15.9378 1.47979 14.3842 1.76965 13.0644 2.94506C12.4157 3.52282 11.9375 4.23863 11.5082 4.98368C10.6809 6.42021 10.0511 7.93683 9.71692 9.56497C9.55269 10.365 9.45479 11.1727 9.5596 11.9912C9.64171 12.6321 9.82469 13.2315 10.3028 13.7031C10.6994 14.0942 11.1962 14.2656 11.7323 14.3455ZM16.6882 16.5344C18.1108 16.5386 19.2932 15.3703 19.2949 13.9581C19.2966 12.5439 18.1581 11.3835 16.7646 11.3796C15.1968 11.3395 14.1186 12.6375 14.1204 13.9498C14.1223 15.3607 15.2845 16.5303 16.6882 16.5344ZM0.316092 21.6367C0.995461 20.9602 1.67705 20.2859 2.35617 19.6094C2.95145 19.0167 3.54599 18.4229 4.13856 17.8275C4.41647 17.5479 4.73557 17.401 5.14047 17.4696C5.19695 17.4789 5.29262 17.4337 5.32517 17.3843C5.70986 16.8039 6.07778 16.2138 6.36309 15.5757C7.08512 13.9605 7.50409 12.2599 7.818 10.5289C7.99875 9.53252 8.17852 8.53618 8.50526 7.5735C9.10128 5.81934 9.89112 4.16492 11.0223 2.68368C12.3655 0.925347 14.1604 0.0660787 16.5139 0C16.7839 0.0282492 17.2106 0.0400402 17.6229 0.12184C19.4375 0.482202 21.0039 1.30561 22.177 2.75074C23.572 4.46977 24.2614 6.42314 23.9088 8.6568C23.6928 10.025 23.1098 11.2233 22.1237 12.216C21.5782 12.7645 20.9578 13.2157 20.3036 13.6237C20.2225 13.6744 20.1921 13.7247 20.1951 13.8267C20.2146 14.4941 20.0607 15.1207 19.7236 15.7009C19.025 16.9031 17.6557 17.5794 16.2752 17.3986C15.3411 17.2763 14.5804 16.8424 13.9861 16.1175C13.9316 16.051 13.8877 16.0252 13.7969 16.0463C13.5429 16.1055 13.2848 16.146 13.0295 16.2006C11.3963 16.5501 9.79569 17.0019 8.27617 17.7064C7.70629 17.9704 7.15959 18.2746 6.65802 18.6546C6.57911 18.7145 6.5182 18.774 6.54237 18.8904C6.61659 19.2434 6.50907 19.5499 6.25927 19.8C4.96736 21.0921 3.67472 22.384 2.37467 23.6682C1.93277 24.1047 1.39815 24.1079 0.935785 23.6933C0.713604 23.494 0.499559 23.2838 0.30031 23.0619C-0.108051 22.6075 -0.0972023 22.0482 0.316092 21.6367ZM17.4849 15.4111C17.6972 15.2328 17.9478 15.1808 18.0441 15.2948C18.1406 15.4089 18.0466 15.6459 17.8342 15.8242C17.6218 16.0026 17.3712 16.0546 17.275 15.9405C17.1785 15.8265 17.2725 15.5894 17.4849 15.4111ZM16.4839 14.0017C16.8023 14.0017 17.0605 14.2589 17.0605 14.5761C17.0605 14.8935 16.8023 15.1505 16.4839 15.1505C16.1655 15.1505 15.9073 14.8935 15.9073 14.5761C15.9073 14.2589 16.1655 14.0017 16.4839 14.0017Z" fill="white"/>
</svg>
