<svg width="18" height="24" viewBox="0 0 18 24" fill="none" xmlns="http://www.w3.org/2000/svg">
<path fill-rule="evenodd" clip-rule="evenodd" d="M9.02275 2.96601e-06C4.04022 -0.00402416 0.00197838 4.09335 5.75247e-07 9.15477C-0.00175747 14.2126 4.02637 18.3232 8.98714 18.3252C13.9662 18.3277 18.0004 14.2249 18 9.16014C17.9991 4.11371 13.9717 0.00403009 9.02275 2.96601e-06ZM5.69644 18.1968C5.47888 18.6069 5.54481 18.9648 5.99025 19.1852C7.0119 19.6908 7.60546 20.6565 7.9808 21.9114C8.19572 22.689 8.23132 23.3302 8.32868 24.0001H9.89707C10.001 23.2432 10.1214 22.4886 10.3214 21.7525C10.6071 20.7014 11.1815 19.7504 12.3124 19.1866C12.7607 18.963 12.8207 18.6071 12.6053 18.1977C9.61732 19.0378 8.74292 19.057 5.69644 18.1968ZM15.4453 7.32329C15.2113 7.02081 15.1537 6.66016 15.1152 6.27892C15.1601 6.10352 15.1853 5.91961 15.2552 5.75517C15.3387 5.55874 15.506 5.54487 15.6587 5.69566C15.969 6.00195 16.1 6.90402 15.891 7.29599C15.7787 7.50675 15.6005 7.52375 15.4453 7.32329ZM15.3477 10.7652C15.2171 10.931 15.0534 11.0894 14.8187 11.0086C14.5855 10.9285 14.5568 10.7055 14.5372 10.4909C14.533 10.4437 14.5365 10.3956 14.5365 10.3482C14.555 9.88596 14.6919 9.46781 15.0013 9.12058C15.131 8.97494 15.2866 8.85256 15.4929 8.92124C15.6909 8.98679 15.7428 9.17271 15.7639 9.36065C15.8228 9.88842 15.6696 10.3562 15.3477 10.7652ZM15.4217 12.8889C15.3041 13.4374 15.02 13.8807 14.56 14.1925C14.3772 14.3163 14.2576 14.2391 14.2618 13.9444C14.2987 13.8475 14.3488 13.6699 14.4308 13.5093C14.5989 13.1799 14.8097 12.8799 15.1345 12.6904C15.1943 12.6555 15.3052 12.6412 15.3531 12.675C15.4026 12.7101 15.4358 12.8226 15.4217 12.8889ZM13.5783 5.85797C13.3137 5.98841 13.0856 5.88169 12.8799 5.70405C12.5584 5.42662 12.2943 5.1049 12.1732 4.68586C12.0884 4.39277 12.0699 4.08917 12.3365 3.88177C12.6041 3.67326 12.9353 3.65872 13.2049 3.84105C13.6611 4.14935 13.9442 4.59525 13.9991 5.0964C13.991 5.48278 13.8554 5.7215 13.5783 5.85797ZM13.3257 9.35076C13.0119 9.52124 12.7014 9.49484 12.4634 9.22502C12.0263 8.73013 11.8439 8.14821 12.0144 7.48709C12.0505 7.34726 12.1289 7.20788 12.2201 7.09534C12.6221 6.59911 13.1989 6.63871 13.5435 7.17633C13.7518 7.50074 13.8804 7.93477 13.8813 8.31579C13.8806 8.76347 13.7318 9.13016 13.3257 9.35076ZM13.4674 11.4424C13.2894 12.1681 12.8677 12.7212 12.1842 13.0181C11.6535 13.2485 11.1608 12.9145 11.17 12.3677C11.1824 11.6294 11.9623 10.717 12.6789 10.6029C13.1863 10.5222 13.592 10.9338 13.4674 11.4424ZM12.6652 14.6674C12.2908 15.2346 11.7368 15.5033 11.1711 15.5898C10.7551 15.5773 10.6219 15.3632 10.8048 15.0867C11.1781 14.5222 11.7192 14.2162 12.3804 14.162C12.7173 14.1345 12.8536 14.3819 12.6652 14.6674ZM9.72966 11.6405C9.26927 11.5584 8.80888 11.4466 8.34497 11.4248C7.58154 11.3891 7.10445 11.7515 6.82404 12.4784C6.77855 12.5963 6.71614 12.7162 6.63285 12.8086C6.44628 13.0156 6.25224 13.0191 6.03072 12.8491C5.68329 12.5822 5.28971 12.4442 4.85547 12.4395C4.32542 12.4339 4.00589 12.7308 3.93799 13.2666C3.92019 13.4071 3.89469 13.5509 3.84371 13.6816C3.7657 13.8809 3.59736 13.9626 3.4031 13.8818C3.23279 13.8111 3.06402 13.7156 2.92271 13.5966C2.21576 13.001 1.80899 12.2173 1.57451 11.3269C1.38816 10.6192 1.27586 9.90237 1.27938 8.89939C1.27828 5.29311 4.05665 1.98125 7.80591 1.39306C9.03105 1.20088 10.234 1.3067 11.4134 1.69442C11.6505 1.77228 11.8514 1.89891 11.9839 2.11906C12.136 2.3721 12.0808 2.6182 11.8277 2.76363C11.7132 2.8294 11.5818 2.86923 11.4543 2.90636C10.7691 3.10593 10.519 3.62409 10.8592 4.25702C11.0322 4.57896 11.2831 4.86713 11.5385 5.1309C11.8804 5.48462 11.8723 5.79873 11.4642 6.05781C10.9126 6.40817 10.6588 7.13507 10.8291 7.88098C10.9284 8.3168 11.1332 8.69177 11.4497 9.00432C11.7624 9.31307 11.7217 9.6377 11.3466 9.87508C10.8399 10.1957 10.5094 10.6478 10.3639 11.2389C10.2733 11.607 10.1026 11.7072 9.72966 11.6405ZM10.1366 13.8457C9.68893 14.3164 9.12591 14.5109 8.39764 14.5361C7.76452 14.5883 7.62366 13.8922 7.85352 13.4446C8.23854 12.6948 9.46192 12.4253 10.1137 12.9521C10.397 13.181 10.4124 13.556 10.1366 13.8457ZM9.56396 16.7906C9.06028 17.0555 8.52913 17.1045 7.99227 16.9063C7.79383 16.8327 7.78284 16.6517 7.98172 16.5702C8.27993 16.4476 8.60011 16.3803 8.86053 16.3044C9.13412 16.3615 9.34245 16.3836 9.53518 16.451C9.73757 16.5219 9.75295 16.6913 9.56396 16.7906ZM6.68864 15.0495C6.50207 15.1144 6.30033 15.1345 6.10563 15.175C5.74984 15.1528 5.42768 15.0578 5.13716 14.8582C4.92532 14.7128 4.77237 14.5212 4.71523 14.2613C4.6381 13.9109 4.81346 13.6252 5.16221 13.5805C5.35033 13.5561 5.55074 13.5615 5.73644 13.5995C6.1643 13.6867 6.53437 13.9087 6.85807 14.1991C7.21847 14.5226 7.14441 14.8911 6.68864 15.0495ZM6.03265 16.4521C6.00826 16.4881 5.92475 16.5069 5.87398 16.4964C5.34042 16.3858 4.89211 16.1189 4.52952 15.7068C4.49655 15.6695 4.4759 15.5822 4.49655 15.5453C4.51765 15.5077 4.59654 15.5032 4.65434 15.4824C5.17736 15.633 5.6406 15.8726 5.99903 16.2919C6.03155 16.3301 6.0544 16.4205 6.03265 16.4521ZM13.4692 2.61963C13.5806 2.66773 13.7716 2.70576 13.9047 2.81606C14.2027 3.06306 14.4794 3.33892 14.7471 3.62015C14.8038 3.67966 14.7858 3.81278 14.802 3.91189C14.7075 3.91345 14.5974 3.94836 14.5214 3.91099C14.0392 3.67451 13.6239 3.34809 13.3211 2.89213C13.2079 2.72187 13.2481 2.6212 13.4692 2.61963ZM10.2019 7.63252C9.51057 7.06783 8.52518 7.05977 7.82196 7.61216C7.12336 8.16119 6.87899 9.14493 7.24576 9.96266C7.29917 10.0819 7.33103 10.2839 7.5176 10.2157C7.59474 10.1875 7.62265 10.0193 7.67297 9.915C7.63232 9.01807 8.19709 8.2565 9.02425 8.00995C9.4086 7.8954 9.7879 7.91285 10.1705 8.02382C10.2309 8.04127 10.3437 8.01264 10.3714 7.967C10.3993 7.92113 10.3641 7.8209 10.3329 7.75669C10.3078 7.70568 10.2487 7.67078 10.2019 7.63252ZM6.07514 8.99416C5.81561 8.87066 5.54443 8.8078 5.25721 8.85836C4.5652 8.98029 4.11052 9.58548 4.10547 10.4578C4.11426 10.5296 4.1147 10.6766 4.15535 10.8111C4.17975 10.8923 4.26677 10.9543 4.32566 11.025C4.3817 10.959 4.45136 10.9003 4.4907 10.8254C4.53707 10.7368 4.55004 10.6307 4.59003 10.5379C4.84715 9.94367 5.39214 9.62463 6.01823 9.74254C6.24765 9.78549 6.45796 9.92734 6.68101 10.013C6.74694 10.0383 6.82693 10.0247 6.90055 10.0289C6.90494 9.94882 6.94076 9.85105 6.90846 9.79153C6.71573 9.43737 6.43818 9.16666 6.07514 8.99416ZM8.20511 6.53264C8.26136 6.5747 8.35981 6.5586 8.43871 6.56933C8.44772 6.48902 8.48464 6.39908 8.46156 6.33017C8.25345 5.71402 8.39783 5.15358 8.88547 4.72939C9.19489 4.46024 9.55924 4.32332 9.95546 4.25128C10.0295 4.23763 10.0913 4.15373 10.1585 4.10227C10.0974 4.04299 10.0445 3.94634 9.97392 3.93045C9.34894 3.79017 8.76131 3.88682 8.24137 4.28014C7.86888 4.56181 7.64231 4.93455 7.62891 5.40997C7.63242 5.89367 7.83987 6.2588 8.20511 6.53264ZM2.38694 9.89028C2.17202 9.78043 1.98479 9.87059 1.90941 10.1026C1.8659 10.2362 1.85535 10.3809 1.83008 10.5205C1.83799 10.5216 1.84634 10.5228 1.85425 10.5239C1.85425 10.5921 1.84898 10.6606 1.85535 10.7281C1.88304 11.0275 1.89425 11.0257 2.19312 11.027C2.29992 11.0275 2.42342 11.0673 2.50912 11.1311C2.65306 11.238 2.80074 11.3602 2.89765 11.5092C3.13323 11.8712 3.33563 12.2555 3.56351 12.6229C3.60307 12.6869 3.70196 12.7128 3.7736 12.7563C3.80547 12.6829 3.87315 12.6043 3.8637 12.5372C3.7391 11.66 3.40309 10.876 2.81744 10.2154C2.69965 10.0825 2.54472 9.97105 2.38694 9.89028ZM10.2514 2.81907C9.90707 2.67455 9.5548 2.5459 9.22341 2.3752C9.03398 2.27765 8.91048 2.10269 8.99091 1.84809C9.02871 1.72795 8.94718 1.62101 8.834 1.65009C8.54634 1.72414 8.25297 1.8029 7.98904 1.93624C7.78686 2.03826 7.77016 2.27362 7.92993 2.4412C8.05738 2.57499 8.21407 2.692 8.37779 2.77612C8.88828 3.03811 9.44141 3.13073 10.0077 3.15288C10.1279 3.15288 10.2497 3.16339 10.3679 3.14728C10.4116 3.14147 10.4767 3.0748 10.4791 3.03251C10.4822 2.9777 10.4437 2.90789 10.402 2.8674C10.3679 2.83429 10.3004 2.83966 10.2514 2.81907Z" fill="white"/>
</svg>
