<svg width="24" height="24" viewBox="0 0 24 24" fill="none" xmlns="http://www.w3.org/2000/svg">
<path fill-rule="evenodd" clip-rule="evenodd" d="M20.0547 11.1319V8.39325C20.1151 8.37834 20.177 8.36342 20.2397 8.34851C20.4584 8.29651 20.6847 8.24259 20.9083 8.16993C21.127 8.09958 21.3342 8.01354 21.554 7.92291C21.5735 7.9145 21.5938 7.90647 21.6133 7.89844C22.0926 9.01463 22.3778 10.1951 22.4443 11.3686C22.4619 11.6742 22.4635 11.9778 22.4551 12.2795C21.7394 11.7854 20.9519 11.4757 20.1843 11.1816L20.0547 11.1319ZM19.6085 19.1609C17.9478 20.9241 15.7275 22.0525 13.373 22.368C13.8287 22.1347 14.2565 21.8827 14.6483 21.5936C15.6522 20.8522 16.5185 19.9421 17.2964 18.811C18.0748 17.6795 18.7117 16.4019 19.1899 15.0135C19.1952 14.9978 19.201 14.9817 19.2071 14.9661C19.4777 15.1867 19.6957 15.4731 19.8864 15.8559C20.1991 16.4838 20.31 17.1533 20.4273 17.8623L20.4411 17.9468C20.453 18.0179 20.4533 18.0822 20.4503 18.1441C20.1922 18.4967 19.9136 18.837 19.6085 19.1609ZM3.58594 18.1562C3.79505 18.1577 4.00492 18.1593 4.21441 18.1531C5.39605 18.1176 6.5819 17.9031 7.73908 17.5161C8.75863 17.1746 9.7843 16.7968 10.7763 16.4316C11.3039 16.2374 11.8318 16.0431 12.3609 15.8531L12.9037 15.6577C13.7593 15.3495 14.6439 15.0302 15.5224 14.7461C16.2426 14.5128 16.9686 14.4057 17.6773 14.4279C18.0248 14.4386 18.4174 14.5262 18.6713 14.6455C18.3884 15.5074 18.0359 16.3341 17.6238 17.1039C16.9162 18.425 16.1092 19.4969 15.1565 20.3821C13.9516 21.5014 12.6786 22.1698 11.2737 22.4309C8.13092 22.2046 5.36012 20.5729 3.58594 18.1562ZM19.2031 7.27161C19.236 7.4108 19.2692 7.54923 19.3036 7.68765C19.3143 7.73163 19.3185 7.78019 19.3239 7.84787C19.239 7.83831 19.1545 7.8299 19.0716 7.82187C18.7998 7.79472 18.5433 7.7691 18.2925 7.71671C17.354 7.52169 16.4338 7.0785 15.3978 6.3229C14.7716 5.86633 14.1455 5.38605 13.5403 4.92182C13.1347 4.61056 12.7295 4.29967 12.3208 3.993C11.3651 3.27602 10.3108 2.55253 9.07675 2.11814C8.99762 2.09022 8.9181 2.0646 8.83744 2.03822C8.82482 2.03401 8.81183 2.02981 8.79883 2.0256C9.76907 1.71969 10.8028 1.55029 11.8797 1.53958C11.9187 1.5392 11.9565 1.53882 11.9951 1.53882C13.5013 1.53882 14.8752 1.83517 16.0982 2.35063C16.3145 2.49785 16.5175 2.66228 16.7114 2.82594C17.7447 3.69779 18.4867 4.8289 18.9171 6.18792C19.0295 6.54239 19.1178 6.91293 19.2031 7.27161ZM21.3583 7.3458C21.3491 7.34963 21.3399 7.35345 21.3312 7.35689C21.1266 7.44216 20.9332 7.52247 20.7325 7.58747C20.536 7.65133 20.3338 7.69875 20.1197 7.74922C20.0601 7.76337 19.9997 7.77752 19.9385 7.79243C19.6629 6.13401 19.1212 4.76314 18.3008 3.62744C19.6147 4.63045 20.6499 5.92216 21.3583 7.3458ZM7.95969 2.44421C8.82442 2.60481 9.66659 2.95546 10.6097 3.5474C11.5172 4.1164 12.3751 4.78749 13.2046 5.43679C13.4845 5.6559 13.7643 5.87463 14.0464 6.09068C14.7877 6.657 15.6604 7.30133 16.6437 7.77702C17.6005 8.24009 18.5073 8.45691 19.4099 8.4397C19.4917 9.24578 19.4997 10.0584 19.434 10.9168L19.226 10.853C18.9848 10.778 18.7478 10.7046 18.5092 10.6354C16.36 10.0086 14.1389 9.53525 11.7187 9.18727C9.95483 8.93375 8.37179 8.80794 6.87897 8.80259C6.83616 8.80259 6.79372 8.80259 6.75091 8.80259C5.66407 8.80259 4.40292 8.85498 3.17005 9.19186C2.75565 9.30543 2.2476 9.48057 1.7793 9.7926C2.49149 6.45471 4.73894 3.73936 7.76434 2.41553C7.82627 2.42203 7.89012 2.43121 7.95969 2.44421ZM1.53711 12.009C1.53979 11.5788 1.56999 11.1563 1.62045 10.741C1.7122 10.6182 1.82726 10.5119 1.94692 10.4148C2.38119 10.0615 2.9118 9.88901 3.32544 9.7785C4.50631 9.46341 5.71739 9.41064 6.68266 9.41064C6.75759 9.41064 6.83137 9.41103 6.90324 9.41141C8.78522 9.42594 10.8182 9.62669 13.1188 10.0263C15.3265 10.4098 17.3193 10.8863 19.2113 11.4836C19.3569 11.5299 19.3772 11.5593 19.3565 11.697C19.2197 12.6013 19.0591 13.3523 18.8538 14.0483C17.6003 13.6093 16.3885 13.8735 15.3464 14.1592C14.1712 14.4808 13.024 14.9339 11.9142 15.3721C11.5866 15.5014 11.2586 15.631 10.9295 15.7576C9.70041 16.2298 8.30775 16.7648 6.90782 17.1227C5.62335 17.4515 4.54454 17.5865 3.50932 17.5498C3.38775 17.5452 3.27039 17.5372 3.15494 17.5246C2.148 15.9231 1.55584 14.0337 1.53711 12.009ZM20.9558 17.3188C20.8755 16.9552 20.7926 16.5785 20.6821 16.2145C20.4359 15.4023 20.025 14.7954 19.4351 14.3679C19.4263 14.3545 19.4187 14.3113 19.4233 14.2899C19.5196 13.8402 19.6186 13.392 19.718 12.9431C19.7868 12.6319 19.8556 12.3206 19.9233 12.0093C19.9412 11.9263 19.9508 11.8415 19.9611 11.7485C20.7479 12.0487 21.491 12.3332 22.16 12.807L22.1845 12.8242C22.2869 12.8923 22.3554 12.9661 22.4081 13.0448C22.2537 14.5851 21.7632 16.0542 20.9677 17.3708C20.9639 17.3536 20.96 17.3364 20.9558 17.3188ZM23.9799 11.2809C23.6619 5.68007 19.0462 -0.0787226 11.8646 0.000814572C8.67824 0.032553 5.6968 1.29559 3.46923 3.55666C1.24931 5.81047 0.0168205 8.81147 0 12.0063V12.0167C0.0279068 15.2632 1.30359 18.2924 3.59195 20.5463C5.85431 22.7741 8.84798 24 12.0244 24H12.0584C15.3113 23.9908 18.4708 22.6115 20.7278 20.2159C23.0143 17.7885 24.1692 14.6154 23.9799 11.2809Z" fill="white"/>
</svg>
