<svg width="24" height="24" viewBox="0 0 24 24" fill="none" xmlns="http://www.w3.org/2000/svg">
<rect width="24" height="24" fill="black" fill-opacity="0"/>
<path d="M22.1108 8.32898L22.1197 8.32964L22.1286 8.33008C22.5539 8.35129 22.9854 8.64307 23.1715 9.28299L23.1756 9.29729L23.1803 9.31142C23.3483 9.81396 23.205 10.3631 22.8312 10.7121L18.2478 14.6138C17.8707 14.9024 17.7761 15.3788 17.8762 15.7442L19.2599 21.657L19.2607 21.6603C19.3544 22.0527 19.268 22.4528 19.0193 22.7977C18.7795 23.0922 18.4333 23.25 18.1144 23.25C17.8927 23.25 17.6842 23.1799 17.5273 23.0566L17.5 23.0352L17.4708 23.0164L12.4899 19.8009C12.3376 19.6979 12.1394 19.6166 11.9058 19.6166C11.6716 19.6166 11.4729 19.6983 11.3204 19.8018L6.37617 23.0178L6.37443 23.0189C6.19237 23.1381 5.95924 23.2107 5.73471 23.2107C5.40876 23.2107 5.06432 23.0414 4.81215 22.7067C4.59981 22.3766 4.52497 21.969 4.62529 21.5454L6.08746 15.657L6.08749 15.657L6.08906 15.6504C6.13003 15.4789 6.14524 15.2656 6.07423 15.0425C6.00571 14.8273 5.87441 14.6583 5.71644 14.5371L1.2086 10.6363C0.788261 10.243 0.65161 9.72533 0.820581 9.1885C0.996786 8.66759 1.42443 8.35233 1.87057 8.33008L1.87951 8.32964L1.88844 8.32898L7.72231 7.89826C8.13727 7.88295 8.51068 7.61029 8.652 7.21191L10.8964 1.53261L10.8965 1.53262L10.8995 1.52461C11.0915 1.02211 11.4931 0.75 11.9996 0.75C12.4771 0.75 12.9108 1.03013 13.0997 1.52461L13.0996 1.52462L13.1028 1.53261L15.3472 7.21191C15.4885 7.61029 15.8619 7.88295 16.2769 7.89826L22.1108 8.32898Z" stroke="white" stroke-width="1.5"/>
</svg>
