<svg width="24" height="24" viewBox="0 0 24 24" fill="none" xmlns="http://www.w3.org/2000/svg">
<path fill-rule="evenodd" clip-rule="evenodd" d="M3.23796 6.30622C3.33238 6.17009 3.43522 6.03969 3.53844 5.90968C3.55526 5.88826 3.59387 5.88444 3.60457 5.88062C3.60457 6.34637 3.5652 6.82399 3.61184 7.29204C3.80413 9.22849 4.99305 10.5558 6.41325 11.7102C7.27608 12.4116 8.22492 13.0077 9.07896 13.7186C9.67342 14.213 10.2545 14.7637 10.6995 15.3904C12.221 17.5326 12.0665 19.7287 10.3803 21.7397C10.1731 21.9868 9.97581 22.1401 9.74835 22.2066C5.09741 21.1619 1.58417 16.9923 1.53906 12.0093C1.54938 10.1768 2.0089 8.46523 2.81247 6.97847C2.94474 6.7521 3.08504 6.52763 3.23796 6.30622ZM11.8813 1.53909C11.9199 1.53871 11.9581 1.53833 11.9971 1.53833C13.1283 1.53833 14.1846 1.7062 15.159 2.00753C15.2152 2.04692 15.2706 2.08822 15.3188 2.13334C17.4489 4.11912 19.1119 6.4177 19.7813 9.30212C20.0275 10.364 20.0661 11.4734 20.2339 12.5555C20.4098 13.6901 20.7821 14.7375 21.6491 15.5631C21.6973 15.609 21.7309 15.6904 21.7497 15.783C21.268 17.0177 20.5501 18.1622 19.6092 19.1607C17.6408 21.2505 14.8876 22.4539 12.0552 22.4611H12.0261C11.481 22.4611 10.9458 22.4187 10.4228 22.3372C11.2765 21.639 11.8656 20.8711 12.1573 19.8922C12.7949 17.7515 11.8231 15.0824 9.85436 13.64C8.82256 12.884 7.74527 12.1892 6.73946 11.4011C5.61477 10.52 4.68504 9.4654 4.22821 8.06277C3.94799 7.20162 3.89523 6.32975 4.12269 5.46095C4.20718 5.13897 4.38112 4.79443 4.61623 4.56576C4.96679 4.22543 5.32538 3.91224 5.69199 3.62583C7.40847 2.3318 9.54432 1.5628 11.8813 1.53909ZM16.9257 2.74517C20.2397 4.51413 22.2509 7.97176 22.444 11.3682C22.5166 12.6496 22.361 13.9035 21.9944 15.0866C21.286 14.3379 20.9447 13.427 20.7482 12.4626C20.5303 11.3908 20.4431 10.2895 20.1793 9.23061C19.557 6.73585 18.2098 4.63956 16.4424 2.79985C16.2716 2.62204 16.0686 2.47482 15.8809 2.31421C16.2433 2.43963 16.5915 2.58456 16.9257 2.74517ZM23.9799 11.2811C23.6618 5.67979 19.0464 -0.0790984 11.8647 0.000822391C8.67835 0.0325613 5.69688 1.29523 3.46928 3.55672C1.24932 5.81057 0.017203 8.81161 0 12.0061V12.0169C0.0275248 15.2634 1.30361 18.2924 3.59199 20.5462C5.85476 22.7744 8.84771 24 12.0245 24H12.0586C15.3111 23.9912 18.4711 22.6119 20.7277 20.2158C23.0146 17.7884 24.1695 14.6152 23.9799 11.2811Z" fill="white"/>
</svg>
