<svg width="16" height="16" viewBox="0 0 16 16" fill="none" xmlns="http://www.w3.org/2000/svg">
<g opacity="0.5">
<rect width="16" height="16" fill="black" fill-opacity="0"/>
<path fill-rule="evenodd" clip-rule="evenodd" d="M11.2266 10.3066C11.5371 10.3066 11.8359 10.4302 12.0557 10.6504L15.6904 14.2927C16.0752 14.6787 16.0752 15.3037 15.6895 15.6895C15.3037 16.075 14.6787 16.0754 14.293 15.6902L10.6504 12.0552C10.4307 11.8354 10.3066 11.5371 10.3066 11.2261V10.9719L10.0537 10.7095C9.37598 11.292 8.57031 11.7273 7.68652 11.9678C7.17676 12.1064 6.6416 12.1804 6.08984 12.1804C2.72656 12.1804 0 9.45386 0 6.09033C0 2.72656 2.72656 0 6.08984 0C9.4541 0 12.1807 2.72656 12.1807 6.09033C12.1807 7.59863 11.6279 8.98535 10.709 10.0535L10.9717 10.3066H11.2266ZM1.05469 6.0896C1.05469 8.87549 3.30371 11.1245 6.08984 11.1245C8.87598 11.1245 11.125 8.87549 11.125 6.0896C11.125 3.30347 8.87598 1.05444 6.08984 1.05444C3.30371 1.05444 1.05469 3.30347 1.05469 6.0896Z" fill="white"/>
</g>
</svg>
