<svg width="21" height="24" viewBox="0 0 21 24" fill="none" xmlns="http://www.w3.org/2000/svg">
<path fill-rule="evenodd" clip-rule="evenodd" d="M14.1003 6.25471C13.3497 6.39746 12.6043 6.49012 11.8524 6.52968C11.1031 6.56902 10.3551 6.55354 9.60761 6.4884C8.85875 6.42348 8.11907 6.30223 7.38157 6.14185C7.21979 6.65975 7.06194 7.16604 6.90234 7.67749C7.53658 7.82583 8.16404 7.93848 8.7974 8.0191C9.43142 8.09994 10.0681 8.14551 10.7071 8.15712C11.3492 8.16852 11.9906 8.14465 12.6301 8.08424C13.2643 8.02448 13.8946 7.9359 14.5238 7.80627C14.3813 7.28364 14.2418 6.77369 14.1003 6.25471ZM1.57765 19.838C1.88505 19.8513 2.17979 19.8661 2.47475 19.8756C2.58697 19.8793 2.67735 19.8298 2.73565 19.7331C2.76294 19.6877 2.78717 19.64 2.80791 19.5914C3.62139 17.6812 4.43377 15.7707 5.24725 13.8603C5.94174 12.2292 6.63755 10.5985 7.33225 8.96722C7.38181 8.85113 7.42526 8.73288 7.47329 8.61142C7.44709 8.60432 7.4305 8.59916 7.41347 8.59508C7.21938 8.54821 7.02573 8.50134 6.83164 8.45469C6.69999 8.4233 6.61375 8.45448 6.53712 8.56369C6.51528 8.59508 6.49694 8.62905 6.4797 8.66323C6.42621 8.76836 6.37403 8.87413 6.32119 8.97947C5.98061 9.65625 5.64024 10.333 5.29943 11.0096C4.87195 11.8573 4.44425 12.7045 4.01677 13.552C3.66636 14.2468 3.31595 14.9417 2.96532 15.6365C2.54941 16.4603 2.13329 17.2837 1.7176 18.1076C1.64315 18.2548 1.56979 18.4027 1.49687 18.5506C1.45255 18.6399 1.43443 18.733 1.44753 18.8329C1.47722 19.0574 1.50189 19.2825 1.53027 19.5069C1.54425 19.6174 1.56149 19.7273 1.57765 19.838ZM19.4806 20.1507C19.483 20.1382 19.4874 20.1238 19.4887 20.1092C19.5153 19.8314 19.5457 19.5537 19.5662 19.2753C19.5806 19.0831 19.5546 18.8971 19.4714 18.7167C18.542 16.6991 17.6163 14.6793 16.6876 12.6612C16.1097 11.4059 15.5278 10.1526 14.9464 8.89897C14.9157 8.83275 14.8757 8.76998 14.8334 8.71C14.7724 8.62379 14.6888 8.58079 14.5786 8.60121C14.5495 8.60637 14.5192 8.60573 14.4899 8.6111C14.3227 8.64249 14.1561 8.67452 13.9891 8.70699C13.9699 8.71064 13.9518 8.71881 13.9258 8.72719C13.945 8.79169 13.9587 8.85167 13.9804 8.90864C14.3871 9.97282 14.793 11.0374 15.2028 12.1005C16.1324 14.5122 17.064 16.9233 17.9951 19.3344C18.065 19.5158 18.1346 19.6971 18.2071 19.8774C18.2733 20.0419 18.3868 20.1451 18.5776 20.1438C18.6222 20.1436 18.6669 20.1503 18.7117 20.1505C18.9652 20.1511 19.2184 20.1507 19.4806 20.1507ZM12.7871 8.86363C12.8496 9.13279 12.9072 9.38476 12.9668 9.63629C13.2436 10.8062 13.5218 11.976 13.7984 13.1461C14.0479 14.2017 14.299 15.2571 14.5431 16.314C14.8311 17.5598 15.1121 18.8074 15.3957 20.0541C15.4461 20.2749 15.4932 20.4963 15.5882 20.7044C15.6587 20.8588 15.7458 21.0019 15.8775 21.1135C16.1351 21.3322 16.4423 21.3952 16.7713 21.3752C16.88 21.3683 16.9776 21.3229 17.0543 21.2393C17.2988 20.9736 17.5466 20.7109 17.7905 20.4445C17.8686 20.3591 17.902 20.2575 17.8693 20.142C17.8553 20.0941 17.8418 20.0459 17.8239 19.9995C17.4171 18.9447 17.0095 17.8907 16.6036 16.8357C15.6249 14.2918 14.647 11.7475 13.6687 9.20331C13.615 9.06357 13.56 8.92447 13.5034 8.77979C13.2668 8.80752 13.034 8.83461 12.7871 8.86363ZM8.59227 8.84474C8.34753 8.79594 8.11502 8.7495 7.87923 8.70264C7.84255 8.78541 7.80871 8.86022 7.77639 8.93568C6.92231 10.9437 6.07128 12.9527 5.2137 14.9592C4.62946 16.3265 4.03627 17.6903 3.44701 19.0557C3.35947 19.2584 3.2669 19.459 3.21668 19.6755C3.14289 19.9928 3.19398 20.2824 3.43784 20.5127C3.58303 20.6496 3.71184 20.7943 3.82624 20.9573C3.94654 21.1282 4.12644 21.2058 4.34062 21.1798C4.41681 21.1705 4.49388 21.1508 4.56484 21.1222C4.69605 21.0691 4.83032 21.0364 4.97136 21.0237C5.14427 21.008 5.26631 20.9201 5.32941 20.7584C5.34644 20.7148 5.36172 20.67 5.37417 20.6247C5.84706 18.8917 6.31864 17.1582 6.7924 15.4255C7.3738 13.2984 7.95673 11.1715 8.53878 9.04468C8.55581 8.98276 8.57219 8.92063 8.59227 8.84474ZM11.5664 8.93509C11.5791 9.09117 11.5893 9.23156 11.602 9.37195C11.6347 9.72904 11.6684 10.0859 11.702 10.443C11.728 10.721 11.7544 10.9987 11.7806 11.2767C11.8138 11.628 11.8474 11.9789 11.8806 12.3302C11.9131 12.6754 11.9454 13.0207 11.9777 13.366C12.0111 13.72 12.045 14.0739 12.0779 14.428C12.1103 14.7733 12.1419 15.1185 12.174 15.4638C12.2078 15.8297 12.2417 16.1954 12.2751 16.5613C12.3091 16.9328 12.3423 17.3045 12.3753 17.6764C12.4022 17.975 12.4286 18.2734 12.4541 18.5723C12.4808 18.8855 12.5067 19.1987 12.5327 19.5122C12.5607 19.8489 12.5858 20.186 12.6168 20.5224C12.636 20.7329 12.6554 20.944 12.6895 21.1523C12.7275 21.3841 12.8139 21.5995 12.9663 21.785C13.1641 22.0258 13.4313 22.1554 13.7245 22.2438C13.8529 22.2825 13.964 22.2565 14.0656 22.1701C14.1784 22.0742 14.2935 21.98 14.4116 21.8904C14.6149 21.736 14.8197 21.5836 15.0271 21.4346C15.1723 21.3303 15.2602 21.2005 15.2458 21.0175C15.2417 20.9681 15.2321 20.9184 15.2207 20.87C15.1258 20.4695 15.0295 20.0694 14.9343 19.6691C14.6516 18.4794 14.3688 17.2899 14.0872 16.0999C13.8376 15.0443 13.5894 13.9886 13.3407 12.9328C13.0384 11.6482 12.736 10.3635 12.4334 9.07892C12.4194 9.01958 12.4035 8.96089 12.3869 8.89575C12.1124 8.90887 11.8454 8.92177 11.5664 8.93509ZM9.01057 8.83618C8.97585 8.95184 8.93939 9.06321 8.90861 9.17607C8.34009 11.2552 7.77528 13.3352 7.20349 15.4135C6.7854 16.933 6.35748 18.4501 5.93568 19.9688C5.88372 20.1556 5.83263 20.3435 5.79923 20.534C5.75163 20.8066 5.80905 21.0622 5.98502 21.2824C6.06602 21.3836 6.15641 21.4786 6.25116 21.5676C6.41796 21.7239 6.59742 21.8654 6.8068 21.9654C7.00918 22.0623 7.2203 22.0982 7.44147 22.0419C7.68075 21.9809 7.88488 21.8562 8.06762 21.6954C8.16325 21.6111 8.20953 21.5016 8.22503 21.3778C8.23988 21.2583 8.2556 21.1388 8.2711 21.0192C8.3152 20.6722 8.3593 20.3252 8.4034 19.9783C8.44794 19.6285 8.49226 19.2785 8.53724 18.9287C8.58178 18.5817 8.62741 18.2349 8.67173 17.8879C8.71626 17.5412 8.75971 17.194 8.80447 16.8472C8.85534 16.4506 8.90773 16.0543 8.95882 15.6577C9.00926 15.2671 9.0586 14.8764 9.10925 14.4858C9.16601 14.0455 9.22431 13.6054 9.28107 13.1654C9.33718 12.7281 9.39242 12.2908 9.44874 11.8535C9.5114 11.3666 9.57515 10.8798 9.63803 10.3931C9.6972 9.9354 9.75571 9.4777 9.814 9.01978C9.8188 8.98345 9.81815 8.94647 9.8199 8.90584C9.54612 8.88219 9.28216 8.85962 9.01057 8.83618ZM7.54435 5.37279C7.56575 5.37967 7.57688 5.38419 7.58845 5.38677C8.14453 5.51167 8.70518 5.60949 9.27174 5.67506C9.6931 5.72386 10.1156 5.76041 10.5391 5.76772C10.9391 5.77482 11.3395 5.77546 11.7386 5.75547C12.1495 5.73483 12.5599 5.6942 12.9686 5.64604C13.2824 5.60906 13.5928 5.54629 13.905 5.49619C13.9483 5.48931 13.9742 5.47728 13.9793 5.4274C14.031 4.93379 14.0375 4.44147 13.943 3.95195C13.833 3.38138 13.5911 2.87444 13.1867 2.44726C12.8734 2.11619 12.5021 1.8625 12.0886 1.66858C11.4888 1.38717 10.8625 1.29085 10.2062 1.41791C9.77301 1.50176 9.37675 1.67439 9.00625 1.90743C8.41918 2.27678 7.98842 2.77275 7.74827 3.42179C7.63627 3.7245 7.57295 4.03751 7.54129 4.35784C7.51204 4.65431 7.51641 4.95077 7.53038 5.24746C7.53234 5.28809 7.53933 5.32851 7.54435 5.37279ZM10.2208 8.94287C9.67217 13.1989 9.12309 17.4539 8.57422 21.7092C8.60719 21.7255 8.63076 21.738 8.65478 21.7492C8.78381 21.8102 8.91262 21.8719 9.04209 21.9321C9.44686 22.1198 9.85229 22.3066 10.2564 22.4952C10.3551 22.5409 10.4564 22.5575 10.561 22.5278C10.638 22.5061 10.7136 22.478 10.7874 22.4466C11.1708 22.2834 11.553 22.1179 11.936 21.9536C12.0098 21.922 12.0855 21.8951 12.1589 21.8625C12.2772 21.8098 12.337 21.7176 12.3318 21.5892C12.3279 21.4922 12.3202 21.3957 12.3115 21.2992C12.2853 21.0122 12.2582 20.7254 12.2314 20.4386C12.1984 20.0845 12.1652 19.7302 12.132 19.3761C12.1061 19.0952 12.0803 18.8142 12.0541 18.5332C12.0207 18.1731 11.9866 17.8132 11.9532 17.4531C11.9266 17.1663 11.9004 16.8795 11.874 16.5925C11.8404 16.2326 11.807 15.8727 11.7738 15.5126C11.7471 15.2258 11.7205 14.939 11.6941 14.6523C11.6609 14.2949 11.6277 13.9381 11.5945 13.581C11.5683 13.297 11.543 13.013 11.5168 12.729C11.4832 12.3633 11.4489 11.9974 11.4151 11.6315C11.3889 11.3475 11.3627 11.0637 11.3365 10.7797C11.3028 10.4198 11.2699 10.0597 11.2358 9.69984C11.2179 9.50957 11.1996 9.31931 11.1791 9.12948C11.1725 9.06907 11.1581 9.00952 11.1463 8.94287H10.2208ZM20.6452 21.5662C20.4876 21.5662 20.3382 21.5675 20.1893 21.5657C20.0011 21.5638 19.8132 21.5597 19.6252 21.5561C19.3385 21.5503 19.0521 21.5464 18.7656 21.5363C18.7017 21.5341 18.6611 21.5515 18.6211 21.5993C18.3445 21.9314 18.0469 22.2451 17.7452 22.5551C17.5893 22.7153 17.4011 22.8041 17.1834 22.8415C17.1129 22.8535 17.0426 22.8688 16.9712 22.8754C16.866 22.8853 16.7636 22.867 16.6634 22.8335C16.4516 22.7626 16.2401 22.6916 16.0272 22.6241C15.8137 22.5564 15.7955 22.5609 15.6183 22.6946C15.5707 22.7303 15.525 22.7684 15.4794 22.8062C15.2222 23.021 14.9655 23.2366 14.7076 23.4509C14.5515 23.5808 14.3839 23.6919 14.1861 23.7524C13.9363 23.8287 13.6913 23.8076 13.4494 23.7173C13.2494 23.6425 13.0717 23.5292 12.8971 23.4105C12.8381 23.3705 12.7785 23.3312 12.7209 23.2893C12.608 23.2071 12.4927 23.2035 12.3685 23.2663C12.2067 23.3482 12.0452 23.4316 11.8781 23.5025C11.5389 23.6468 11.1981 23.7887 10.8535 23.9209C10.5566 24.0348 10.2549 24.0254 9.96474 23.8945C9.51478 23.6913 9.0683 23.4804 8.6203 23.2727C8.55546 23.2428 8.48887 23.2164 8.42556 23.1835C8.37097 23.1549 8.32163 23.1538 8.2653 23.1809C7.99218 23.3127 7.71687 23.4404 7.44397 23.5728C7.20032 23.6909 6.95121 23.7272 6.69031 23.6371C6.55298 23.5898 6.43618 23.5101 6.32593 23.4178C5.95434 23.108 5.57947 22.8023 5.20941 22.491C5.14064 22.4334 5.07689 22.4212 4.99131 22.4416C4.72473 22.5056 4.45707 22.5663 4.18875 22.6217C3.76956 22.7086 3.4126 22.5929 3.13162 22.2765C2.85238 21.9624 2.58275 21.6399 2.31137 21.3191C2.27382 21.2744 2.23692 21.2553 2.17688 21.2544C1.7053 21.2488 1.2335 21.2396 0.76192 21.2304C0.621974 21.2276 0.482028 21.2218 0.335532 21.217C0.324615 21.1401 0.313699 21.0648 0.303656 20.9896C0.252132 20.608 0.199515 20.2264 0.149956 19.8446C0.0990859 19.4509 0.047343 19.0575 0.00411469 18.663C-0.0174995 18.4671 0.0488713 18.2859 0.136856 18.1126C0.847722 16.7111 1.55902 15.3096 2.26923 13.9079C2.6 13.2559 2.93141 12.604 3.25846 11.9503C3.87043 10.727 4.47912 9.50223 5.08977 8.27853C5.28735 7.88274 5.4797 7.48501 5.6358 7.07095C5.83928 6.53198 5.99036 5.9799 6.07005 5.40975C6.10891 5.13006 6.12769 4.84864 6.13249 4.56615C6.15367 3.28053 6.60778 2.17056 7.54811 1.2702C8.21181 0.634917 9.00477 0.226659 9.91933 0.0755237C11.4208 -0.172785 12.7584 0.189896 13.9031 1.18292C14.6627 1.84206 15.1255 2.6775 15.3261 3.65439C15.3975 4.00203 15.4253 4.35331 15.4113 4.70697C15.3761 5.59658 15.5281 6.45674 15.8202 7.29604C15.9761 7.74429 16.1765 8.17447 16.3724 8.60616C17.0605 10.122 17.7474 11.6385 18.4443 13.1505C19.1313 14.6408 19.8304 16.1259 20.5229 17.6136C20.6386 17.862 20.7585 18.1092 20.8585 18.3635C21.0177 18.7685 21.0356 19.1858 20.9471 19.6122C20.8884 19.897 20.8502 20.1857 20.8074 20.4734C20.7554 20.8223 20.7087 21.1721 20.6594 21.5212C20.6574 21.5354 20.6509 21.549 20.6452 21.5662Z" fill="white"/>
</svg>
