<svg width="34" height="24" viewBox="0 0 34 24" fill="none" xmlns="http://www.w3.org/2000/svg">
<rect width="34" height="24" fill="black" fill-opacity="0"/>
<rect width="24" height="23.6962" fill="black" fill-opacity="0" transform="translate(5 0.110107)"/>
<path d="M17 0.860107C23.2186 0.860107 28.25 5.8415 28.25 11.9582C28.25 18.0749 23.2186 23.0563 17 23.0563C10.7814 23.0563 5.75 18.0749 5.75 11.9582C5.75 5.8415 10.7814 0.860107 17 0.860107Z" stroke="white" stroke-width="1.5"/>
<path fill-rule="evenodd" clip-rule="evenodd" d="M17.2458 5C17.3862 5 17.5 5.11512 17.5 5.25714V12.1998C17.5 12.2708 17.4745 12.3381 17.4285 12.3846L12.932 16.9247C12.8327 17.0251 12.6737 17.0251 12.5745 16.9247C12.4752 16.8243 12.4752 16.6635 12.5745 16.5631L16.9916 12.0873V5.25714C16.9916 5.11512 17.1054 5 17.2458 5Z" fill="white" stroke="white" stroke-width="0.625"/>
</svg>
