<svg width="34" height="24" viewBox="0 0 34 24" fill="none" xmlns="http://www.w3.org/2000/svg">
<path fill-rule="evenodd" clip-rule="evenodd" d="M30.1221 9.3172C30.1211 9.32279 30.1206 9.32838 30.1194 9.33397C30.1204 9.28451 30.1223 9.23527 30.1217 9.1856C30.1215 9.17033 30.1194 9.15592 30.1191 9.14087C30.1204 9.14603 30.1211 9.15141 30.1221 9.15657V9.3172ZM30.0677 9.90137C30.0575 9.96609 30.0464 10.0304 30.0332 10.0945C30.0462 10.0304 30.0575 9.96609 30.0677 9.90137ZM30.0908 9.7312C30.0853 9.77937 30.0797 9.82775 30.0723 9.87571C30.0797 9.82775 30.0848 9.77937 30.0908 9.7312ZM30.1044 9.59595C30.1039 9.59917 30.1037 9.6024 30.1035 9.60562C30.1039 9.6024 30.1039 9.59917 30.1044 9.59595ZM30.0449 8.43774C30.056 8.4943 30.0641 8.55193 30.0722 8.60956C30.0637 8.55193 30.056 8.49408 30.0449 8.43774ZM29.8555 10.7529C29.867 10.7183 29.8774 10.6835 29.8885 10.6484C29.8776 10.6835 29.867 10.7183 29.8555 10.7529ZM29.9883 10.2969C29.9983 10.256 30.0075 10.2149 30.0164 10.1741C30.0085 10.2093 30.0017 10.2446 29.9932 10.2801C29.9917 10.2857 29.9898 10.2911 29.9883 10.2969ZM29.3359 11.963C29.4967 11.6606 29.6397 11.3465 29.763 11.0183C29.6489 11.323 29.5161 11.6202 29.3651 11.9101C29.3558 11.9281 29.3453 11.9451 29.3359 11.963ZM28.2877 13.5442C28.2582 13.5814 28.2269 13.6166 28.1973 13.6534C28.6211 13.1274 29.0066 12.5754 29.3255 11.9783C29.0298 12.5339 28.6782 13.0522 28.2877 13.5442ZM28.0089 13.8813C27.8381 14.0861 27.6635 14.2871 27.4844 14.4841C27.6639 14.2865 27.8383 14.0852 28.0089 13.8813ZM27.0469 14.9514C27.1931 14.7998 27.3377 14.6461 27.4797 14.4897C27.3379 14.6459 27.1936 14.7996 27.0469 14.9514ZM26.5859 15.4157C26.7247 15.2795 26.8625 15.1417 26.9983 15.0017C26.8625 15.1413 26.7249 15.2795 26.5859 15.4157ZM26.0938 15.885C26.2311 15.7579 26.3671 15.6291 26.5016 15.4985C26.4244 15.5729 26.3492 15.6488 26.2713 15.7226C26.2129 15.7777 26.1526 15.8303 26.0938 15.885ZM24.0234 17.6127C24.7065 17.0949 25.3664 16.5502 25.9977 15.9727C25.366 16.5515 24.7063 17.0964 24.0234 17.6127ZM23.5195 17.9855C23.6773 17.8705 23.8346 17.7546 23.9903 17.637C23.9255 17.6858 23.8624 17.7359 23.7973 17.784C23.7054 17.8522 23.6118 17.9178 23.5195 17.9855ZM22.9062 18.4315C23.0433 18.3315 23.1802 18.232 23.3177 18.1331C23.1806 18.2326 23.0446 18.3335 22.9062 18.4315ZM22.3172 19.0027C22.316 19.0045 22.3149 19.0062 22.3136 19.0077C22.1124 19.2924 21.9162 19.581 21.709 19.8612C21.9369 19.5455 22.155 19.2221 22.3829 18.906C22.4484 18.8152 22.5177 18.7206 22.6049 18.654C22.6477 18.6213 22.6918 18.5901 22.7353 18.5576C22.5701 18.6821 22.4285 18.8266 22.3172 19.0027ZM21.5898 20.0209C21.608 19.9966 21.6267 19.9728 21.6448 19.9482C21.6365 19.9592 21.6289 19.9708 21.6205 19.9818C21.6105 19.9951 21.5999 20.0078 21.5898 20.0209ZM19.793 22.2457C20.2646 21.6774 20.7336 21.1071 21.1937 20.5295C20.9869 20.7904 20.7788 21.0501 20.5695 21.3086C20.3142 21.6239 20.0541 21.9354 19.793 22.2457ZM18.5723 23.0705C18.9844 22.9858 19.3519 22.7757 19.6613 22.4045C19.6481 22.4198 19.6355 22.4357 19.6225 22.451C19.3413 22.7811 18.9893 22.9875 18.5723 23.0705ZM18.4481 23.0927C18.4042 23.0987 18.3605 23.1073 18.3168 23.1149H17.9245C17.9155 23.1112 17.9066 23.1054 17.8974 23.1048C17.8703 23.1024 17.8435 23.0983 17.8164 23.0953C18.0552 23.1217 18.2842 23.1198 18.5008 23.0833C18.4831 23.086 18.466 23.0903 18.4481 23.0927ZM17.4238 23.0308C17.5155 23.0508 17.6078 23.0684 17.7018 23.0822C17.6085 23.0688 17.5159 23.051 17.4238 23.0308ZM17.0781 22.9417C17.157 22.9651 17.2361 22.987 17.3165 23.0066C17.2421 22.9883 17.1681 22.9687 17.0948 22.947C17.0892 22.9455 17.0839 22.9434 17.0781 22.9417ZM16.7344 22.8257C16.7674 22.8379 16.8011 22.8489 16.8342 22.8607C16.8011 22.8491 16.7674 22.8379 16.7344 22.8257ZM16.3984 22.6887C16.4409 22.7074 16.4837 22.7246 16.5264 22.7425C16.4837 22.7248 16.4409 22.7074 16.3984 22.6887ZM16.0938 22.5471C16.1257 22.5628 16.1583 22.5779 16.1905 22.5934C16.1583 22.5779 16.1257 22.563 16.0938 22.5471ZM14.7495 21.8516C14.4928 21.8884 14.2361 21.9236 13.9792 21.9593L13.3477 22.0469C13.8297 21.9798 14.3115 21.9125 14.7934 21.8447C14.8066 21.8525 14.82 21.86 14.8337 21.8675C14.813 21.8572 14.7934 21.8499 14.771 21.8499C14.7642 21.8499 14.7571 21.8505 14.7495 21.8516ZM12.3854 22.1828C12.3694 22.185 12.3537 22.186 12.3379 22.188C12.5628 22.1561 12.7875 22.1254 13.0125 22.094C12.8035 22.1232 12.5942 22.1525 12.3854 22.1828ZM12.1719 22.2061C12.1994 22.2039 12.2275 22.2005 12.2559 22.197C12.2277 22.2002 12.1996 22.2041 12.1719 22.2061ZM11.7422 22.2014C11.7441 22.2016 11.746 22.2018 11.7477 22.2021C11.7469 22.2018 11.746 22.2021 11.7452 22.2018C11.7441 22.2018 11.7433 22.2014 11.7422 22.2014ZM4.77779 11.7319C4.76585 11.7112 4.75391 11.6908 4.74219 11.6699C4.75391 11.6906 4.76585 11.7112 4.77779 11.7319ZM4.51953 11.2368C4.52934 11.2575 4.53872 11.2783 4.54874 11.299C4.54597 11.2932 4.54277 11.288 4.54 11.2822C4.53275 11.2671 4.52657 11.2519 4.51953 11.2368ZM3.87695 8.01887C3.87972 7.99199 3.88186 7.96511 3.88463 7.93823C3.88292 8.01091 3.88143 8.08381 3.87951 8.15628C3.87461 8.34766 3.87781 8.53668 3.8874 8.72333C3.88356 8.69882 3.88058 8.67409 3.87695 8.64957V8.01887ZM14.0275 0.885254C14.0326 0.886544 14.038 0.887619 14.0431 0.88934C13.9201 0.885899 13.7971 0.885469 13.6738 0.888694C13.6853 0.887189 13.6971 0.886329 13.709 0.885254H14.0275ZM16.2402 1.35181C16.249 1.35568 16.2575 1.35976 16.266 1.36363C16.2575 1.35976 16.249 1.35568 16.2402 1.35181ZM16.6303 1.55396C16.5849 1.52665 16.5391 1.49977 16.4922 1.47461C16.4969 1.47697 16.5016 1.47891 16.5063 1.48149C16.5489 1.50428 16.5892 1.52944 16.6303 1.55396ZM16.9319 1.7617C16.8818 1.72192 16.83 1.68429 16.7773 1.64795C16.8304 1.68429 16.882 1.72235 16.9319 1.7617ZM17.2078 2.01449C17.1451 1.94718 17.0786 1.88482 17.0098 1.82568C17.0793 1.88525 17.1456 1.94782 17.2078 2.01449ZM17.4226 2.28255C17.3672 2.20255 17.3068 2.12836 17.2441 2.05762C17.3075 2.12879 17.3674 2.20341 17.4226 2.28255ZM17.6696 2.71584C17.6858 2.75218 17.7033 2.78788 17.7204 2.82401C17.7185 2.82465 17.7163 2.82551 17.7144 2.82616C17.6809 2.75068 17.6487 2.67498 17.6123 2.60144C17.559 2.49371 17.4997 2.3935 17.4355 2.29932C17.5242 2.42791 17.6031 2.56596 17.6696 2.71584ZM29.0026 6.4682C28.9954 6.46025 28.9881 6.45229 28.9805 6.44434C28.9881 6.45208 28.9954 6.46025 29.0026 6.4682ZM29.3284 6.85252C29.3092 6.82715 29.2894 6.80177 29.2695 6.77661C29.2783 6.78779 29.2885 6.79747 29.2972 6.80865C29.3083 6.82306 29.3177 6.83811 29.3284 6.85252ZM29.5122 7.1174C29.4975 7.09439 29.4839 7.07138 29.4688 7.04858C29.4839 7.07138 29.4975 7.09439 29.5122 7.1174ZM29.9115 7.94203C29.8904 7.88031 29.8661 7.81967 29.8418 7.75903C29.8663 7.81967 29.8904 7.88031 29.9115 7.94203ZM30.0118 8.29055C29.9954 8.22066 29.9771 8.15163 29.957 8.08325C29.9771 8.15163 29.9954 8.22066 30.0118 8.29055ZM19.5449 3.32495C19.5652 3.3428 19.5861 3.36022 19.6068 3.37764C19.5842 3.35914 19.5641 3.34258 19.5464 3.32603C19.546 3.3256 19.5453 3.32538 19.5449 3.32495ZM21.3861 18.0525C21.3861 18.0525 20.8702 17.8758 20.8043 17.8437C20.0773 17.4898 19.3571 17.1212 18.6311 16.7643C18.5096 16.7047 18.1169 16.5077 18.1169 16.5077C17.26 15.9071 16.4251 15.3203 15.5883 14.7367C15.4561 14.6444 15.025 14.3014 15.025 14.3014C14.9135 14.212 14.8289 14.1443 14.7393 14.0724C14.9007 13.7075 14.8884 13.343 14.8103 12.9687C14.6276 12.0935 14.517 11.2062 14.5511 10.313C14.585 9.42958 14.7393 8.56169 14.9956 7.71037C15.3325 6.59175 15.8267 5.55592 16.5036 4.60889C16.7639 4.24505 17.0336 3.89196 17.3969 3.6165C18.0098 3.15159 18.6846 3.20815 19.2091 3.80315C19.0697 4.08958 18.9307 4.38268 18.7827 4.67083C18.7631 4.70932 16.8428 7.88799 17.8318 8.43009C17.6625 7.83767 17.9604 7.34459 18.1783 6.84226C18.3207 6.51369 18.5341 6.21651 18.6761 5.88772L19.0381 5.3026C19.1571 5.11595 19.2761 4.91511 19.4127 4.72738C19.4387 4.69147 19.6419 4.39708 19.6419 4.39708C20.1402 3.50339 20.9328 3.18385 21.8829 3.17589C22.6815 3.16923 23.4105 3.46383 24.1294 3.76789C25.4529 4.3272 26.6319 5.12864 27.7331 6.04534C28.2384 6.46616 28.7465 6.89602 29.0872 7.47856C29.5844 8.32946 29.6748 9.23304 29.4392 10.1859C29.1631 11.3015 28.571 12.2442 27.8836 13.1355C26.7441 14.6132 25.3613 15.8394 23.9132 16.9931C23.397 17.4042 22.8425 17.7663 22.3099 18.1571C22.1895 18.2454 22.0771 18.2757 21.9343 18.2237C21.7626 18.1611 21.5855 18.1138 21.3861 18.0525ZM16.3355 21.0561C15.1073 20.3547 13.9528 19.5438 12.8418 18.6834C13.1403 17.9873 13.4403 17.3046 13.7264 16.6158C14.0138 15.9243 14.2877 15.2269 14.5756 14.5115C16.8169 16.2178 19.1031 17.8432 21.8506 18.6531C21.8423 18.6924 21.8325 18.738 21.8167 18.8118L21.6084 19.1012C21.4227 19.3421 21.2462 19.5788 21.0618 19.8087C20.7083 20.2495 20.3456 20.6828 19.9975 21.1277C19.9146 21.2339 19.7003 21.452 19.7003 21.452L19.4728 21.7373L19.1059 22.1345C19.0485 22.2575 18.9792 22.2915 18.8398 22.2438C17.9603 21.9427 17.1404 21.5159 16.3355 21.0561ZM15.7023 21.7005C15.0859 21.3694 14.4864 20.9999 13.9086 20.604C13.4453 20.2866 13.0072 19.9215 12.7665 19.3824C12.7352 19.3123 12.7202 19.2351 12.6816 19.1089C14.4725 20.4617 16.2788 21.6741 18.3033 22.5262C17.9693 22.5643 17.6354 22.5514 17.3267 22.4254C16.7777 22.2015 16.2236 21.9807 15.7023 21.7005ZM8.0787 15.2535C8.07316 15.2483 8.06804 15.243 8.0625 15.2378C8.06804 15.243 8.07316 15.2483 8.0787 15.2535ZM4.37756 7.96826C4.39782 7.48916 4.39846 7.00984 4.67882 6.59417C4.96898 6.16453 5.33249 5.8394 5.88639 5.85165C5.98446 5.85402 6.1175 5.90821 6.17208 5.98412C6.53815 6.4944 6.86989 7.0307 7.24832 7.53087L7.71715 8.43489L8.18641 9.48555C8.78807 10.8525 9.11149 12.2701 9.14347 13.754C9.30487 11.6751 8.83945 9.71758 8.0037 7.81343C8.30538 7.94675 8.58595 8.079 8.87271 8.19598C9.71784 8.5409 10.5984 8.65336 11.5013 8.56176C12.6204 8.44822 13.6213 8.0747 14.4908 7.44077C14.2509 8.21404 14.0976 9.00473 14.0234 9.81155C13.9203 10.9373 14.0505 12.0501 14.2729 13.1547C14.3057 13.3164 14.3213 13.5063 14.2688 13.6562C14.1808 13.9076 14.0885 14.1577 13.9964 14.4075C13.9932 14.0405 13.9851 13.6747 13.9657 13.3093C13.9444 12.9109 13.8115 12.5105 13.6793 12.1284C13.5836 11.8518 13.3627 11.6677 13.0361 11.6981C12.6743 11.7318 12.444 11.9423 12.318 12.2735C12.1078 12.8255 12.1633 13.3943 12.281 13.9473C12.4436 14.7118 12.6575 15.4653 12.8574 16.2553C12.3131 16.331 9.90865 16.594 9.46861 16.6198C9.42724 16.6224 9.36094 16.5665 9.34132 16.5218C9.22129 16.2476 9.10041 15.9728 9.00041 15.6906C8.8823 15.3578 8.68701 15.0935 8.41326 14.8731C7.59797 14.2172 6.81595 13.5246 6.11942 12.7378C4.9159 11.3781 4.30038 9.80467 4.37756 7.96826ZM4.28882 10.6895C4.28818 10.688 4.28775 10.6865 4.28711 10.6848C4.28775 10.6863 4.28818 10.688 4.28882 10.6895ZM6.06048 5.33325C6.0592 5.33325 6.05792 5.33347 6.05664 5.33325C6.05835 5.32873 6.05899 5.32637 6.06005 5.32422C6.06027 5.32723 6.06005 5.33002 6.06048 5.33325ZM15.9793 1.78883C16.5924 2.03075 16.992 2.4705 17.267 3.03088C17.215 3.06142 17.1625 3.0941 17.1101 3.12959C16.5928 3.47687 16.2411 3.9835 15.897 4.48926C15.4168 5.1948 15.0367 5.95129 14.7314 6.74972C13.5477 7.62793 12.2307 8.13348 10.7394 8.08617C9.68213 8.05241 8.69586 7.75545 7.79742 7.19356C7.65522 7.10475 7.56972 6.91487 7.47336 6.76155C7.19428 6.31643 6.92863 5.86291 6.64699 5.41972C6.47685 5.152 6.52909 4.86342 6.57151 4.59054C6.67769 3.90974 7.08 3.41623 7.6307 3.03583C8.37691 2.5206 9.22929 2.27073 10.0898 2.04172C11.2784 1.72561 12.4732 1.44155 13.7093 1.3994C14.4911 1.37274 15.2537 1.50262 15.9793 1.78883ZM11.9219 21.6893C11.672 21.6996 11.4232 21.6422 11.1955 21.4568C11.1955 21.4568 10.7661 20.9912 10.6619 20.8349C10.6619 20.8349 10.4297 20.4608 10.3805 20.335C10.2172 19.9154 10.0526 19.4963 9.88264 19.0624L9.7221 18.5418L9.57563 18.0136C9.57563 18.0136 9.50804 17.7236 9.48118 17.6141L9.42383 16.9836C10.6704 16.8907 11.9106 16.7746 13.1333 16.5613C12.8771 17.1677 12.6165 17.7724 12.3409 18.3702C12.1571 18.7682 12.0298 19.1596 12.2375 19.5613C12.3984 19.872 12.5999 20.1752 12.8389 20.4285C13.2216 20.8349 13.6644 21.1605 14.13 21.4529C13.897 21.4927 13.664 21.5316 13.4305 21.5693C12.9338 21.6495 12.4257 21.6682 11.9219 21.6893ZM30.9889 9.0139C30.9582 8.01269 30.6228 7.08889 29.9918 6.26681C29.7609 5.96597 29.5035 5.71115 29.2598 5.48085C28.2213 4.49878 27.0052 3.62659 25.6448 2.88837C24.8489 2.45658 23.988 2.12348 23.086 1.89813C22.8116 1.82953 22.4444 1.74889 22.0391 1.73319C21.9775 1.73104 21.9153 1.72975 21.8543 1.72975C21.174 1.72975 20.5312 1.87834 19.9436 2.17144C19.8553 2.21531 19.7683 2.26304 19.6824 2.31444C19.5417 2.2209 19.3993 2.14198 19.2534 2.07682C18.9262 1.9306 18.5863 1.85662 18.2429 1.85662C18.229 1.85662 18.2147 1.85662 18.2006 1.85705C17.8864 1.37795 17.4576 0.990028 16.9197 0.700589C16.5552 0.504045 16.1415 0.348574 15.6554 0.225358C15.1783 0.104508 14.6864 0.0331156 14.1912 0.0126871L14.1445 0H14.0274H13.7089H13.6629L13.617 0.0047308C13.6019 0.00645109 13.5863 0.00817138 13.571 0.0101067L13.5646 0.0109669C13.2842 0.0219337 13.0036 0.047093 12.7303 0.0855845C12.4048 0.131172 12.1184 0.174825 11.8545 0.218692C11.3153 0.308577 10.7586 0.428568 10.1521 0.585114C9.44616 0.767465 8.82275 0.956912 8.2469 1.16421C7.64695 1.3801 7.102 1.6818 6.62763 2.06091C6.16711 2.42905 5.82343 2.83526 5.57718 3.30317C5.37805 3.68142 5.25077 4.09322 5.19896 4.52695C5.19811 4.53469 5.19704 4.54243 5.19619 4.55039C4.77832 4.66586 4.39434 4.87961 4.06345 5.18388C3.52298 5.68105 3.19273 6.30057 3.08166 7.02481C3.04136 7.28694 3.029 7.53875 3.01876 7.7955C3.01834 7.80604 3.01471 7.83636 3.01237 7.85851C3.00959 7.88281 3.00661 7.9071 3.00448 7.93162L3 7.97506V8.01892V8.64962V8.71328L3.00917 8.77628C3.01258 8.79951 3.0162 8.82273 3.02025 8.84595C3.02153 8.85455 3.02324 8.86316 3.02431 8.87154C3.08528 9.84931 3.32876 10.7897 3.74855 11.6668C4.02657 12.2478 4.39455 12.8153 4.8734 13.4013C5.18212 13.7791 5.51237 14.1423 5.85562 14.4812C6.31209 14.9321 6.7935 15.3521 7.28663 15.7293C7.61347 15.9794 7.82966 16.3079 7.94777 16.7339C7.98615 16.872 8.01685 17.0309 8.04457 17.2339C8.10448 17.6702 8.19168 18.1181 8.30361 18.5652C8.5571 19.575 8.94129 20.5618 9.44616 21.4989C9.6568 21.8898 9.90624 22.2049 10.2086 22.4612C10.6222 22.8121 11.1061 23.0209 11.647 23.0818C11.7539 23.0936 11.8645 23.0999 11.9762 23.0999C12.1449 23.0999 12.3195 23.0865 12.5099 23.0588C12.757 23.0231 13.0041 22.9885 13.2512 22.9538C13.4356 22.928 13.62 22.9027 13.8044 22.8771L14.0995 22.8362L14.263 22.8136C14.3854 22.7967 14.508 22.7797 14.6304 22.7625C14.6353 22.7653 14.6404 22.7681 14.6453 22.7709C14.8926 22.9083 15.1484 23.0502 15.4056 23.1872C15.9335 23.4686 16.3921 23.6624 16.8485 23.7968C17.1464 23.8845 17.425 23.9428 17.6966 23.9742L17.7644 24H17.9254H18.3177H18.391L18.4631 23.9877C18.4797 23.9849 18.4961 23.9822 18.5126 23.9791C18.5305 23.9759 18.5484 23.9725 18.5663 23.9701C19.2464 23.8774 19.8417 23.5519 20.2879 23.0282C20.5862 22.6782 20.9006 22.2988 21.249 21.8683C21.649 21.3744 21.9814 20.9615 22.3169 20.5218C22.496 20.2872 22.6617 20.0485 22.8216 19.8178C22.8898 19.7193 22.958 19.6208 23.0273 19.5229C23.0378 19.5081 23.048 19.4931 23.0576 19.4776C23.1128 19.3907 23.1874 19.3154 23.2913 19.2421C23.5959 19.0277 23.9223 18.791 24.3183 18.497C25.2583 17.7996 26.0934 17.1034 26.8707 16.3686C27.679 15.6048 28.367 14.8618 28.9737 14.0974C29.4494 13.4983 29.8314 12.9175 30.1414 12.3216C30.4689 11.6926 30.6992 11.0933 30.8452 10.4897C30.9377 10.1071 30.9844 9.77405 30.9904 9.44892L31 9.39408V9.3171V9.15647V9.0683L30.9889 9.0139Z" fill="#365D5F"/>
<mask id="mask0" mask-type="alpha" maskUnits="userSpaceOnUse" x="3" y="0" width="28" height="24">
<path fill-rule="evenodd" clip-rule="evenodd" d="M30.1221 9.3172C30.1211 9.32279 30.1206 9.32838 30.1194 9.33397C30.1204 9.28451 30.1223 9.23527 30.1217 9.1856C30.1215 9.17033 30.1194 9.15592 30.1191 9.14087C30.1204 9.14603 30.1211 9.15141 30.1221 9.15657V9.3172ZM30.0677 9.90137C30.0575 9.96609 30.0464 10.0304 30.0332 10.0945C30.0462 10.0304 30.0575 9.96609 30.0677 9.90137ZM30.0908 9.7312C30.0853 9.77937 30.0797 9.82775 30.0723 9.87571C30.0797 9.82775 30.0848 9.77937 30.0908 9.7312ZM30.1044 9.59595C30.1039 9.59917 30.1037 9.6024 30.1035 9.60562C30.1039 9.6024 30.1039 9.59917 30.1044 9.59595ZM30.0449 8.43774C30.056 8.4943 30.0641 8.55193 30.0722 8.60956C30.0637 8.55193 30.056 8.49408 30.0449 8.43774ZM29.8555 10.7529C29.867 10.7183 29.8774 10.6835 29.8885 10.6484C29.8776 10.6835 29.867 10.7183 29.8555 10.7529ZM29.9883 10.2969C29.9983 10.256 30.0075 10.2149 30.0164 10.1741C30.0085 10.2093 30.0017 10.2446 29.9932 10.2801C29.9917 10.2857 29.9898 10.2911 29.9883 10.2969ZM29.3359 11.963C29.4967 11.6606 29.6397 11.3465 29.763 11.0183C29.6489 11.323 29.5161 11.6202 29.3651 11.9101C29.3558 11.9281 29.3453 11.9451 29.3359 11.963ZM28.2877 13.5442C28.2582 13.5814 28.2269 13.6166 28.1973 13.6534C28.6211 13.1274 29.0066 12.5754 29.3255 11.9783C29.0298 12.5339 28.6782 13.0522 28.2877 13.5442ZM28.0089 13.8813C27.8381 14.0861 27.6635 14.2871 27.4844 14.4841C27.6639 14.2865 27.8383 14.0852 28.0089 13.8813ZM27.0469 14.9514C27.1931 14.7998 27.3377 14.6461 27.4797 14.4897C27.3379 14.6459 27.1936 14.7996 27.0469 14.9514ZM26.5859 15.4157C26.7247 15.2795 26.8625 15.1417 26.9983 15.0017C26.8625 15.1413 26.7249 15.2795 26.5859 15.4157ZM26.0938 15.885C26.2311 15.7579 26.3671 15.6291 26.5016 15.4985C26.4244 15.5729 26.3492 15.6488 26.2713 15.7226C26.2129 15.7777 26.1526 15.8303 26.0938 15.885ZM24.0234 17.6127C24.7065 17.0949 25.3664 16.5502 25.9977 15.9727C25.366 16.5515 24.7063 17.0964 24.0234 17.6127ZM23.5195 17.9855C23.6773 17.8705 23.8346 17.7546 23.9903 17.637C23.9255 17.6858 23.8624 17.7359 23.7973 17.784C23.7054 17.8522 23.6118 17.9178 23.5195 17.9855ZM22.9062 18.4315C23.0433 18.3315 23.1802 18.232 23.3177 18.1331C23.1806 18.2326 23.0446 18.3335 22.9062 18.4315ZM22.3172 19.0027C22.316 19.0045 22.3149 19.0062 22.3136 19.0077C22.1124 19.2924 21.9162 19.581 21.709 19.8612C21.9369 19.5455 22.155 19.2221 22.3829 18.906C22.4484 18.8152 22.5177 18.7206 22.6049 18.654C22.6477 18.6213 22.6918 18.5901 22.7353 18.5576C22.5701 18.6821 22.4285 18.8266 22.3172 19.0027ZM21.5898 20.0209C21.608 19.9966 21.6267 19.9728 21.6448 19.9482C21.6365 19.9592 21.6289 19.9708 21.6205 19.9818C21.6105 19.9951 21.5999 20.0078 21.5898 20.0209ZM19.793 22.2457C20.2646 21.6774 20.7336 21.1071 21.1937 20.5295C20.9869 20.7904 20.7788 21.0501 20.5695 21.3086C20.3142 21.6239 20.0541 21.9354 19.793 22.2457ZM18.5723 23.0705C18.9844 22.9858 19.3519 22.7757 19.6613 22.4045C19.6481 22.4198 19.6355 22.4357 19.6225 22.451C19.3413 22.7811 18.9893 22.9875 18.5723 23.0705ZM18.4481 23.0927C18.4042 23.0987 18.3605 23.1073 18.3168 23.1149H17.9245C17.9155 23.1112 17.9066 23.1054 17.8974 23.1048C17.8703 23.1024 17.8435 23.0983 17.8164 23.0953C18.0552 23.1217 18.2842 23.1198 18.5008 23.0833C18.4831 23.086 18.466 23.0903 18.4481 23.0927ZM17.4238 23.0308C17.5155 23.0508 17.6078 23.0684 17.7018 23.0822C17.6085 23.0688 17.5159 23.051 17.4238 23.0308ZM17.0781 22.9417C17.157 22.9651 17.2361 22.987 17.3165 23.0066C17.2421 22.9883 17.1681 22.9687 17.0948 22.947C17.0892 22.9455 17.0839 22.9434 17.0781 22.9417ZM16.7344 22.8257C16.7674 22.8379 16.8011 22.8489 16.8342 22.8607C16.8011 22.8491 16.7674 22.8379 16.7344 22.8257ZM16.3984 22.6887C16.4409 22.7074 16.4837 22.7246 16.5264 22.7425C16.4837 22.7248 16.4409 22.7074 16.3984 22.6887ZM16.0938 22.5471C16.1257 22.5628 16.1583 22.5779 16.1905 22.5934C16.1583 22.5779 16.1257 22.563 16.0938 22.5471ZM14.7495 21.8516C14.4928 21.8884 14.2361 21.9236 13.9792 21.9593L13.3477 22.0469C13.8297 21.9798 14.3115 21.9125 14.7934 21.8447C14.8066 21.8525 14.82 21.86 14.8337 21.8675C14.813 21.8572 14.7934 21.8499 14.771 21.8499C14.7642 21.8499 14.7571 21.8505 14.7495 21.8516ZM12.3854 22.1828C12.3694 22.185 12.3537 22.186 12.3379 22.188C12.5628 22.1561 12.7875 22.1254 13.0125 22.094C12.8035 22.1232 12.5942 22.1525 12.3854 22.1828ZM12.1719 22.2061C12.1994 22.2039 12.2275 22.2005 12.2559 22.197C12.2277 22.2002 12.1996 22.2041 12.1719 22.2061ZM11.7422 22.2014C11.7441 22.2016 11.746 22.2018 11.7477 22.2021C11.7469 22.2018 11.746 22.2021 11.7452 22.2018C11.7441 22.2018 11.7433 22.2014 11.7422 22.2014ZM4.77779 11.7319C4.76585 11.7112 4.75391 11.6908 4.74219 11.6699C4.75391 11.6906 4.76585 11.7112 4.77779 11.7319ZM4.51953 11.2368C4.52934 11.2575 4.53872 11.2783 4.54874 11.299C4.54597 11.2932 4.54277 11.288 4.54 11.2822C4.53275 11.2671 4.52657 11.2519 4.51953 11.2368ZM3.87695 8.01887C3.87972 7.99199 3.88186 7.96511 3.88463 7.93823C3.88292 8.01091 3.88143 8.08381 3.87951 8.15628C3.87461 8.34766 3.87781 8.53668 3.8874 8.72333C3.88356 8.69882 3.88058 8.67409 3.87695 8.64957V8.01887ZM14.0275 0.885254C14.0326 0.886544 14.038 0.887619 14.0431 0.88934C13.9201 0.885899 13.7971 0.885469 13.6738 0.888694C13.6853 0.887189 13.6971 0.886329 13.709 0.885254H14.0275ZM16.2402 1.35181C16.249 1.35568 16.2575 1.35976 16.266 1.36363C16.2575 1.35976 16.249 1.35568 16.2402 1.35181ZM16.6303 1.55396C16.5849 1.52665 16.5391 1.49977 16.4922 1.47461C16.4969 1.47697 16.5016 1.47891 16.5063 1.48149C16.5489 1.50428 16.5892 1.52944 16.6303 1.55396ZM16.9319 1.7617C16.8818 1.72192 16.83 1.68429 16.7773 1.64795C16.8304 1.68429 16.882 1.72235 16.9319 1.7617ZM17.2078 2.01449C17.1451 1.94718 17.0786 1.88482 17.0098 1.82568C17.0793 1.88525 17.1456 1.94782 17.2078 2.01449ZM17.4226 2.28255C17.3672 2.20255 17.3068 2.12836 17.2441 2.05762C17.3075 2.12879 17.3674 2.20341 17.4226 2.28255ZM17.6696 2.71584C17.6858 2.75218 17.7033 2.78788 17.7204 2.82401C17.7185 2.82465 17.7163 2.82551 17.7144 2.82616C17.6809 2.75068 17.6487 2.67498 17.6123 2.60144C17.559 2.49371 17.4997 2.3935 17.4355 2.29932C17.5242 2.42791 17.6031 2.56596 17.6696 2.71584ZM29.0026 6.4682C28.9954 6.46025 28.9881 6.45229 28.9805 6.44434C28.9881 6.45208 28.9954 6.46025 29.0026 6.4682ZM29.3284 6.85252C29.3092 6.82715 29.2894 6.80177 29.2695 6.77661C29.2783 6.78779 29.2885 6.79747 29.2972 6.80865C29.3083 6.82306 29.3177 6.83811 29.3284 6.85252ZM29.5122 7.1174C29.4975 7.09439 29.4839 7.07138 29.4688 7.04858C29.4839 7.07138 29.4975 7.09439 29.5122 7.1174ZM29.9115 7.94203C29.8904 7.88031 29.8661 7.81967 29.8418 7.75903C29.8663 7.81967 29.8904 7.88031 29.9115 7.94203ZM30.0118 8.29055C29.9954 8.22066 29.9771 8.15163 29.957 8.08325C29.9771 8.15163 29.9954 8.22066 30.0118 8.29055ZM19.5449 3.32495C19.5652 3.3428 19.5861 3.36022 19.6068 3.37764C19.5842 3.35914 19.5641 3.34258 19.5464 3.32603C19.546 3.3256 19.5453 3.32538 19.5449 3.32495ZM21.3861 18.0525C21.3861 18.0525 20.8702 17.8758 20.8043 17.8437C20.0773 17.4898 19.3571 17.1212 18.6311 16.7643C18.5096 16.7047 18.1169 16.5077 18.1169 16.5077C17.26 15.9071 16.4251 15.3203 15.5883 14.7367C15.4561 14.6444 15.025 14.3014 15.025 14.3014C14.9135 14.212 14.8289 14.1443 14.7393 14.0724C14.9007 13.7075 14.8884 13.343 14.8103 12.9687C14.6276 12.0935 14.517 11.2062 14.5511 10.313C14.585 9.42958 14.7393 8.56169 14.9956 7.71037C15.3325 6.59175 15.8267 5.55592 16.5036 4.60889C16.7639 4.24505 17.0336 3.89196 17.3969 3.6165C18.0098 3.15159 18.6846 3.20815 19.2091 3.80315C19.0697 4.08958 18.9307 4.38268 18.7827 4.67083C18.7631 4.70932 16.8428 7.88799 17.8318 8.43009C17.6625 7.83767 17.9604 7.34459 18.1783 6.84226C18.3207 6.51369 18.5341 6.21651 18.6761 5.88772L19.0381 5.3026C19.1571 5.11595 19.2761 4.91511 19.4127 4.72738C19.4387 4.69147 19.6419 4.39708 19.6419 4.39708C20.1402 3.50339 20.9328 3.18385 21.8829 3.17589C22.6815 3.16923 23.4105 3.46383 24.1294 3.76789C25.4529 4.3272 26.6319 5.12864 27.7331 6.04534C28.2384 6.46616 28.7465 6.89602 29.0872 7.47856C29.5844 8.32946 29.6748 9.23304 29.4392 10.1859C29.1631 11.3015 28.571 12.2442 27.8836 13.1355C26.7441 14.6132 25.3613 15.8394 23.9132 16.9931C23.397 17.4042 22.8425 17.7663 22.3099 18.1571C22.1895 18.2454 22.0771 18.2757 21.9343 18.2237C21.7626 18.1611 21.5855 18.1138 21.3861 18.0525ZM16.3355 21.0561C15.1073 20.3547 13.9528 19.5438 12.8418 18.6834C13.1403 17.9873 13.4403 17.3046 13.7264 16.6158C14.0138 15.9243 14.2877 15.2269 14.5756 14.5115C16.8169 16.2178 19.1031 17.8432 21.8506 18.6531C21.8423 18.6924 21.8325 18.738 21.8167 18.8118L21.6084 19.1012C21.4227 19.3421 21.2462 19.5788 21.0618 19.8087C20.7083 20.2495 20.3456 20.6828 19.9975 21.1277C19.9146 21.2339 19.7003 21.452 19.7003 21.452L19.4728 21.7373L19.1059 22.1345C19.0485 22.2575 18.9792 22.2915 18.8398 22.2438C17.9603 21.9427 17.1404 21.5159 16.3355 21.0561ZM15.7023 21.7005C15.0859 21.3694 14.4864 20.9999 13.9086 20.604C13.4453 20.2866 13.0072 19.9215 12.7665 19.3824C12.7352 19.3123 12.7202 19.2351 12.6816 19.1089C14.4725 20.4617 16.2788 21.6741 18.3033 22.5262C17.9693 22.5643 17.6354 22.5514 17.3267 22.4254C16.7777 22.2015 16.2236 21.9807 15.7023 21.7005ZM8.0787 15.2535C8.07316 15.2483 8.06804 15.243 8.0625 15.2378C8.06804 15.243 8.07316 15.2483 8.0787 15.2535ZM4.37756 7.96826C4.39782 7.48916 4.39846 7.00984 4.67882 6.59417C4.96898 6.16453 5.33249 5.8394 5.88639 5.85165C5.98446 5.85402 6.1175 5.90821 6.17208 5.98412C6.53815 6.4944 6.86989 7.0307 7.24832 7.53087L7.71715 8.43489L8.18641 9.48555C8.78807 10.8525 9.11149 12.2701 9.14347 13.754C9.30487 11.6751 8.83945 9.71758 8.0037 7.81343C8.30538 7.94675 8.58595 8.079 8.87271 8.19598C9.71784 8.5409 10.5984 8.65336 11.5013 8.56176C12.6204 8.44822 13.6213 8.0747 14.4908 7.44077C14.2509 8.21404 14.0976 9.00473 14.0234 9.81155C13.9203 10.9373 14.0505 12.0501 14.2729 13.1547C14.3057 13.3164 14.3213 13.5063 14.2688 13.6562C14.1808 13.9076 14.0885 14.1577 13.9964 14.4075C13.9932 14.0405 13.9851 13.6747 13.9657 13.3093C13.9444 12.9109 13.8115 12.5105 13.6793 12.1284C13.5836 11.8518 13.3627 11.6677 13.0361 11.6981C12.6743 11.7318 12.444 11.9423 12.318 12.2735C12.1078 12.8255 12.1633 13.3943 12.281 13.9473C12.4436 14.7118 12.6575 15.4653 12.8574 16.2553C12.3131 16.331 9.90865 16.594 9.46861 16.6198C9.42724 16.6224 9.36094 16.5665 9.34132 16.5218C9.22129 16.2476 9.10041 15.9728 9.00041 15.6906C8.8823 15.3578 8.68701 15.0935 8.41326 14.8731C7.59797 14.2172 6.81595 13.5246 6.11942 12.7378C4.9159 11.3781 4.30038 9.80467 4.37756 7.96826ZM4.28882 10.6895C4.28818 10.688 4.28775 10.6865 4.28711 10.6848C4.28775 10.6863 4.28818 10.688 4.28882 10.6895ZM6.06048 5.33325C6.0592 5.33325 6.05792 5.33347 6.05664 5.33325C6.05835 5.32873 6.05899 5.32637 6.06005 5.32422C6.06027 5.32723 6.06005 5.33002 6.06048 5.33325ZM15.9793 1.78883C16.5924 2.03075 16.992 2.4705 17.267 3.03088C17.215 3.06142 17.1625 3.0941 17.1101 3.12959C16.5928 3.47687 16.2411 3.9835 15.897 4.48926C15.4168 5.1948 15.0367 5.95129 14.7314 6.74972C13.5477 7.62793 12.2307 8.13348 10.7394 8.08617C9.68213 8.05241 8.69586 7.75545 7.79742 7.19356C7.65522 7.10475 7.56972 6.91487 7.47336 6.76155C7.19428 6.31643 6.92863 5.86291 6.64699 5.41972C6.47685 5.152 6.52909 4.86342 6.57151 4.59054C6.67769 3.90974 7.08 3.41623 7.6307 3.03583C8.37691 2.5206 9.22929 2.27073 10.0898 2.04172C11.2784 1.72561 12.4732 1.44155 13.7093 1.3994C14.4911 1.37274 15.2537 1.50262 15.9793 1.78883ZM11.9219 21.6893C11.672 21.6996 11.4232 21.6422 11.1955 21.4568C11.1955 21.4568 10.7661 20.9912 10.6619 20.8349C10.6619 20.8349 10.4297 20.4608 10.3805 20.335C10.2172 19.9154 10.0526 19.4963 9.88264 19.0624L9.7221 18.5418L9.57563 18.0136C9.57563 18.0136 9.50804 17.7236 9.48118 17.6141L9.42383 16.9836C10.6704 16.8907 11.9106 16.7746 13.1333 16.5613C12.8771 17.1677 12.6165 17.7724 12.3409 18.3702C12.1571 18.7682 12.0298 19.1596 12.2375 19.5613C12.3984 19.872 12.5999 20.1752 12.8389 20.4285C13.2216 20.8349 13.6644 21.1605 14.13 21.4529C13.897 21.4927 13.664 21.5316 13.4305 21.5693C12.9338 21.6495 12.4257 21.6682 11.9219 21.6893ZM30.9889 9.0139C30.9582 8.01269 30.6228 7.08889 29.9918 6.26681C29.7609 5.96597 29.5035 5.71115 29.2598 5.48085C28.2213 4.49878 27.0052 3.62659 25.6448 2.88837C24.8489 2.45658 23.988 2.12348 23.086 1.89813C22.8116 1.82953 22.4444 1.74889 22.0391 1.73319C21.9775 1.73104 21.9153 1.72975 21.8543 1.72975C21.174 1.72975 20.5312 1.87834 19.9436 2.17144C19.8553 2.21531 19.7683 2.26304 19.6824 2.31444C19.5417 2.2209 19.3993 2.14198 19.2534 2.07682C18.9262 1.9306 18.5863 1.85662 18.2429 1.85662C18.229 1.85662 18.2147 1.85662 18.2006 1.85705C17.8864 1.37795 17.4576 0.990028 16.9197 0.700589C16.5552 0.504045 16.1415 0.348574 15.6554 0.225358C15.1783 0.104508 14.6864 0.0331156 14.1912 0.0126871L14.1445 0H14.0274H13.7089H13.6629L13.617 0.0047308C13.6019 0.00645109 13.5863 0.00817138 13.571 0.0101067L13.5646 0.0109669C13.2842 0.0219337 13.0036 0.047093 12.7303 0.0855845C12.4048 0.131172 12.1184 0.174825 11.8545 0.218692C11.3153 0.308577 10.7586 0.428568 10.1521 0.585114C9.44616 0.767465 8.82275 0.956912 8.2469 1.16421C7.64695 1.3801 7.102 1.6818 6.62763 2.06091C6.16711 2.42905 5.82343 2.83526 5.57718 3.30317C5.37805 3.68142 5.25077 4.09322 5.19896 4.52695C5.19811 4.53469 5.19704 4.54243 5.19619 4.55039C4.77832 4.66586 4.39434 4.87961 4.06345 5.18388C3.52298 5.68105 3.19273 6.30057 3.08166 7.02481C3.04136 7.28694 3.029 7.53875 3.01876 7.7955C3.01834 7.80604 3.01471 7.83636 3.01237 7.85851C3.00959 7.88281 3.00661 7.9071 3.00448 7.93162L3 7.97506V8.01892V8.64962V8.71328L3.00917 8.77628C3.01258 8.79951 3.0162 8.82273 3.02025 8.84595C3.02153 8.85455 3.02324 8.86316 3.02431 8.87154C3.08528 9.84931 3.32876 10.7897 3.74855 11.6668C4.02657 12.2478 4.39455 12.8153 4.8734 13.4013C5.18212 13.7791 5.51237 14.1423 5.85562 14.4812C6.31209 14.9321 6.7935 15.3521 7.28663 15.7293C7.61347 15.9794 7.82966 16.3079 7.94777 16.7339C7.98615 16.872 8.01685 17.0309 8.04457 17.2339C8.10448 17.6702 8.19168 18.1181 8.30361 18.5652C8.5571 19.575 8.94129 20.5618 9.44616 21.4989C9.6568 21.8898 9.90624 22.2049 10.2086 22.4612C10.6222 22.8121 11.1061 23.0209 11.647 23.0818C11.7539 23.0936 11.8645 23.0999 11.9762 23.0999C12.1449 23.0999 12.3195 23.0865 12.5099 23.0588C12.757 23.0231 13.0041 22.9885 13.2512 22.9538C13.4356 22.928 13.62 22.9027 13.8044 22.8771L14.0995 22.8362L14.263 22.8136C14.3854 22.7967 14.508 22.7797 14.6304 22.7625C14.6353 22.7653 14.6404 22.7681 14.6453 22.7709C14.8926 22.9083 15.1484 23.0502 15.4056 23.1872C15.9335 23.4686 16.3921 23.6624 16.8485 23.7968C17.1464 23.8845 17.425 23.9428 17.6966 23.9742L17.7644 24H17.9254H18.3177H18.391L18.4631 23.9877C18.4797 23.9849 18.4961 23.9822 18.5126 23.9791C18.5305 23.9759 18.5484 23.9725 18.5663 23.9701C19.2464 23.8774 19.8417 23.5519 20.2879 23.0282C20.5862 22.6782 20.9006 22.2988 21.249 21.8683C21.649 21.3744 21.9814 20.9615 22.3169 20.5218C22.496 20.2872 22.6617 20.0485 22.8216 19.8178C22.8898 19.7193 22.958 19.6208 23.0273 19.5229C23.0378 19.5081 23.048 19.4931 23.0576 19.4776C23.1128 19.3907 23.1874 19.3154 23.2913 19.2421C23.5959 19.0277 23.9223 18.791 24.3183 18.497C25.2583 17.7996 26.0934 17.1034 26.8707 16.3686C27.679 15.6048 28.367 14.8618 28.9737 14.0974C29.4494 13.4983 29.8314 12.9175 30.1414 12.3216C30.4689 11.6926 30.6992 11.0933 30.8452 10.4897C30.9377 10.1071 30.9844 9.77405 30.9904 9.44892L31 9.39408V9.3171V9.15647V9.0683L30.9889 9.0139Z" fill="white"/>
</mask>
<g mask="url(#mask0)">
<rect width="34" height="24" fill="black" fill-opacity="0"/>
<path fill-rule="evenodd" clip-rule="evenodd" d="M0 0H34V24H0V0Z" fill="white"/>
</g>
</svg>
