<svg width="24" height="24" viewBox="0 0 24 24" fill="none" xmlns="http://www.w3.org/2000/svg">
<path fill-rule="evenodd" clip-rule="evenodd" d="M19.4531 9.23292C20.1967 9.16142 20.8748 9.15262 21.5232 9.20578C21.6069 9.21266 21.691 9.22107 21.7751 9.22872C21.8799 9.23904 21.9846 9.24707 22.0894 9.2551C22.2824 9.95182 22.4036 10.6612 22.4437 11.3686C22.5603 13.4212 22.0905 15.4024 21.1042 17.1354C21.4043 14.355 20.8519 11.7009 19.4531 9.23292ZM7.19217 9.63587C8.30768 10.6366 9.6063 11.4954 11.1622 12.2602C11.2322 12.2946 11.3052 12.3707 11.3369 12.4419C11.7096 13.2724 11.9761 14.1641 12.1722 15.2364C12.1019 15.2222 12.033 15.2084 11.965 15.1951C11.7196 15.1465 11.4875 15.1002 11.2597 15.0421C9.47288 14.5874 7.77325 13.7385 6.06367 12.4464C4.64922 11.3784 3.36589 10.0833 2.14258 8.49215C2.56347 7.29259 3.19157 6.19819 3.98519 5.25024C4.02112 5.33858 4.05629 5.42806 4.09491 5.51295C4.77652 7.02874 5.78957 8.37705 7.19217 9.63587ZM10.0248 1.72241C8.00401 2.71624 6.30743 4.14256 4.9767 5.98721C4.96943 5.97574 4.9637 5.96579 4.95911 5.95547C4.80964 5.62241 4.66207 5.2882 4.51451 4.95399L4.42773 4.75668C5.89532 3.21488 7.8316 2.13195 10.0248 1.72241ZM21.9032 8.64358C21.6773 8.62522 21.4448 8.60649 21.2147 8.59807C18.9753 8.51739 16.7435 8.96325 14.5733 9.92573C13.491 10.4052 12.4646 11.0022 11.5215 11.6981C11.4959 11.7176 11.4275 11.7268 11.4068 11.7184C9.87538 10.9865 8.5133 10.073 7.35803 9.00341C7.34351 8.98964 7.32974 8.97511 7.31445 8.95828C7.40314 8.89022 7.49069 8.82139 7.57823 8.75294C7.83895 8.54874 8.08552 8.35602 8.34433 8.16941C10.458 6.64674 12.5403 5.61352 14.7097 5.01011C15.9866 4.65487 17.2462 4.48929 18.4477 4.52027C18.7608 4.52753 19.0793 4.55659 19.3897 4.58527C20.5373 5.74774 21.3913 7.15379 21.9032 8.64358ZM12.0705 1.54102C14.7285 1.55861 16.9752 2.49355 18.6916 3.94128C16.8471 3.87245 15.0045 4.19748 13.0598 4.93511C10.9049 5.75266 8.84208 6.96254 6.92836 8.52919C6.91575 8.5399 6.90275 8.54946 6.88708 8.56093C6.81177 8.47413 6.73607 8.38771 6.66076 8.30091C6.4356 8.04317 6.20279 7.77627 5.98565 7.5063C5.85567 7.34493 5.73411 7.16903 5.61674 6.99849C5.53379 6.8788 5.45121 6.75873 5.36444 6.64172C5.31092 6.56983 5.30556 6.54 5.36444 6.45358C6.44745 4.87354 7.87375 3.57304 9.60397 2.58915C10.4549 2.10504 11.265 1.76548 12.0705 1.54102ZM1.53711 12.0094C1.54284 11.0232 1.68123 10.0733 1.93048 9.17358C2.08569 9.36363 2.23784 9.55024 2.39343 9.73379C4.3599 12.0457 6.46438 13.7003 8.82728 14.7909C10.0005 15.3327 11.0793 15.6658 12.1245 15.8088C12.2503 15.826 12.2713 15.8524 12.2881 16.0069C12.425 17.2738 12.3814 18.5154 12.16 19.697C12.1516 19.7405 12.1402 19.7841 12.1249 19.8434L12.1184 19.8683C11.936 19.8346 11.7548 19.8029 11.5744 19.7711C11.1087 19.6897 10.6691 19.6128 10.2299 19.5012C7.60014 18.8328 5.30949 17.5032 3.42139 15.5492C2.7738 14.8788 2.17208 14.1041 1.62465 13.2529C1.57266 12.8445 1.54093 12.43 1.53711 12.0094ZM1.92578 14.7454C4.51461 17.959 7.89515 19.8717 11.9936 20.4296C11.978 20.485 11.9627 20.5401 11.947 20.5955C11.8874 20.8082 11.8258 21.0276 11.7493 21.236C11.6568 21.4869 11.5517 21.7389 11.45 21.9832C11.3881 22.1316 11.3265 22.2811 11.2669 22.4306C6.80755 22.1064 3.09748 18.9524 1.92578 14.7454ZM12.0533 22.4612H12.0243C11.9807 22.4612 11.9379 22.4585 11.8947 22.4581C11.9566 22.3113 12.0185 22.1652 12.0774 22.0191C12.8003 20.2246 13.0778 18.3023 12.9016 16.3043C12.7758 14.8761 12.4337 13.5064 11.8847 12.2338C11.8587 12.173 11.8603 12.1718 11.8985 12.1431C12.7797 11.49 13.7644 10.9206 14.8172 10.4534C14.8226 10.4522 14.8291 10.4518 14.839 10.4507C14.9369 10.7138 15.0363 10.9765 15.1357 11.2384C15.3769 11.8728 15.6262 12.5294 15.8398 13.1829C16.2799 14.525 16.5157 15.9162 16.5413 17.3176C16.5715 18.9581 16.2929 20.4181 15.6953 21.7786C14.537 22.221 13.303 22.4577 12.0533 22.4612ZM19.6072 19.161C18.702 20.1219 17.6297 20.8924 16.4614 21.4484C16.5348 21.2366 16.6067 21.0308 16.6675 20.8251C17.0888 19.4003 17.221 17.9278 17.0719 16.3236C16.898 14.4522 16.3655 12.541 15.4434 10.4807C15.4109 10.4081 15.3807 10.3346 15.3474 10.2532L15.3379 10.2302C15.4044 10.205 15.4702 10.179 15.5348 10.153C15.7488 10.0681 15.9507 9.98781 16.1598 9.93274C16.6851 9.79508 17.2226 9.66584 17.7428 9.54079C18.0437 9.46814 18.3442 9.39625 18.6447 9.32169C18.7651 9.29148 18.8182 9.31786 18.8943 9.44367C19.5893 10.5958 20.084 11.8837 20.3638 13.2706C20.701 14.9428 20.6784 16.6471 20.3053 18.3411C20.0882 18.6241 19.8553 18.8971 19.6072 19.161ZM23.9799 11.2809C23.6615 5.68008 19.0462 -0.0790972 11.8646 0.000822324C8.67824 0.0325607 5.6968 1.29559 3.46923 3.55667C1.24892 5.81086 0.0172028 8.81147 0 12.0063V12.0167C0.0279068 15.2635 1.30321 18.2921 3.59195 20.5463C5.85431 22.7744 8.84759 24 12.0244 24H12.0584C15.3113 23.9912 18.4708 22.6115 20.7275 20.2159C23.0143 17.7885 24.1692 14.6154 23.9799 11.2809Z" fill="white"/>
</svg>
