<svg width="34" height="24" viewBox="0 0 34 24" fill="none" xmlns="http://www.w3.org/2000/svg">
<path fill-rule="evenodd" clip-rule="evenodd" d="M33.0117 16.3972C32.8943 16.5025 30.1015 18.9452 27.5109 16.4191L27.4786 16.3877C28.3234 14.6587 28.7227 12.7373 28.6089 10.7521C28.3036 5.41378 23.8726 -0.0753888 16.9787 0.000783771C13.9199 0.0310341 11.0577 1.23485 8.91928 3.38992C6.78782 5.53806 5.60501 8.39836 5.5885 11.4434V11.4536C5.60318 13.1546 5.98852 14.7892 6.68983 16.2769L6.51735 16.5929C6.50744 16.6111 5.47914 18.4258 4.0677 18.5122C3.1594 18.5636 2.19459 17.8966 1.20152 16.5164L0 17.3685C1.24849 19.1041 2.57919 19.9821 3.95834 19.9821C4.02513 19.9821 4.09229 19.9799 4.15908 19.9762C5.56831 19.8895 6.62854 18.892 7.23554 18.1375C8.38715 19.322 9.59454 19.8811 10.8364 19.8068C12.2695 19.7186 13.3551 18.7833 13.9731 18.0854C15.0953 19.1897 16.2734 19.7124 17.4833 19.638C18.8676 19.5549 19.9231 18.6966 20.5279 18.0522C21.5286 18.9812 22.612 19.4368 23.7478 19.419C25.2227 19.3909 26.3971 18.5443 27.0382 17.9549C29.7547 20.0506 32.7346 18.6186 34 17.4873L33.0117 16.3972ZM23.7205 17.9528C23.1436 17.9652 22.5733 17.7684 22.0136 17.37C22.047 16.776 22.0364 16.1688 21.9795 15.5587C21.8125 13.7746 21.3009 11.9527 20.4157 9.98895C20.3849 9.92079 20.3563 9.85118 20.3247 9.77501L20.3145 9.75095C20.3787 9.72654 20.4414 9.70139 20.5038 9.67697C20.7093 9.59569 20.9035 9.51916 21.1038 9.46704C21.6092 9.33547 22.1263 9.21192 22.6268 9.09237C22.9142 9.02385 23.2019 8.95533 23.4893 8.88463C23.6041 8.85584 23.6559 8.88098 23.7285 9.00089C24.3965 10.099 24.871 11.3262 25.1392 12.6481C25.4629 14.24 25.4413 15.8634 25.0846 17.4761C25.0457 17.5264 25.0046 17.5756 24.9646 17.6252C24.5943 17.8088 24.173 17.9444 23.7205 17.9528ZM21.0427 16.4654L20.4001 15.7237L19.8618 16.5445C19.853 16.5576 19.0819 17.7126 17.9355 18.0716C18.0367 17.238 18.0507 16.3866 17.9755 15.54C17.8543 14.1787 17.5263 12.8729 16.9993 11.6599C16.9743 11.6024 16.9758 11.6013 17.0125 11.5743C17.8584 10.9514 18.8034 10.4087 19.8144 9.96373C19.8196 9.96227 19.8258 9.96191 19.8354 9.96045C19.9286 10.2108 20.024 10.4601 20.1194 10.7094C20.351 11.3148 20.5906 11.9413 20.7965 12.5649C21.2182 13.8442 21.445 15.1701 21.4696 16.5062C21.4721 16.6389 21.4659 16.773 21.4637 16.9067C21.3228 16.7712 21.1822 16.6272 21.0427 16.4654ZM14.4897 16.4741L13.8273 15.6807L13.2897 16.5627C13.2842 16.5714 12.9858 17.0391 12.4915 17.4935C11.1608 16.8164 9.94604 15.9227 8.87334 14.8202C8.25129 14.1809 7.67402 13.4429 7.14813 12.6309C7.09822 12.2424 7.06812 11.8473 7.06445 11.446C7.06996 10.5061 7.20281 9.60111 7.44172 8.74316C7.59108 8.92467 7.73714 9.10289 7.88651 9.2771C9.77393 11.4806 11.7942 13.0573 14.0626 14.0975C15.1896 14.6143 16.2252 14.9317 17.2282 15.0677C17.3486 15.0844 17.3691 15.1089 17.3853 15.2565C17.4891 16.2139 17.4836 17.163 17.3691 18.0781L17.357 18.1736C16.4282 18.2137 15.4652 17.6437 14.4897 16.4741ZM10.7447 18.3427C10.414 18.362 10.0775 18.2949 9.73693 18.1553C8.6712 17.0011 7.87043 15.6001 7.43555 14.0479C8.7545 15.6752 10.2863 16.961 12.0119 17.8754C11.6456 18.1225 11.217 18.3139 10.7447 18.3427ZM26.2513 8.7742C26.3331 8.78113 26.415 8.78878 26.4968 8.79644C26.5963 8.80591 26.6953 8.81357 26.7948 8.82086C26.9801 9.48527 27.0965 10.1613 27.135 10.8356C27.2469 12.7909 26.7955 14.6781 25.8494 16.3291C26.1368 13.6795 25.6061 11.1516 24.2637 8.80008C24.9771 8.73156 25.6289 8.72391 26.2513 8.7742ZM16.5376 11.1694C15.0675 10.4714 13.7603 9.60035 12.6516 8.58167C12.6373 8.56855 12.6237 8.55434 12.6094 8.53867C12.6956 8.47197 12.7815 8.40527 12.867 8.33894C13.1158 8.14578 13.3511 7.96318 13.598 7.78605C15.6275 6.33513 17.6261 5.34999 19.7084 4.77559C20.9334 4.43737 22.1419 4.2781 23.2972 4.30799C23.5977 4.31528 23.9031 4.34261 24.2011 4.36995C25.3031 5.47791 26.123 6.81804 26.6144 8.23835C26.3975 8.22086 26.174 8.203 25.9531 8.19498C23.8066 8.11917 21.6611 8.54268 19.5777 9.46003C18.5381 9.91779 17.5527 10.4867 16.6481 11.1497C16.6231 11.1679 16.5578 11.1774 16.5376 11.1694ZM15.2113 1.6416C13.2711 2.58884 11.6424 3.94828 10.3649 5.70608C10.3579 5.69551 10.3524 5.68604 10.348 5.67583C10.2005 5.35037 10.0555 5.02308 9.91019 4.69616L9.83789 4.53361C11.2468 3.06337 13.1056 2.03158 15.2113 1.6416ZM17.1767 1.46851C19.7287 1.48527 21.8855 2.37675 23.5336 3.7566C21.764 3.69063 19.994 4.00079 18.1272 4.70347C16.0585 5.48306 14.0782 6.63585 12.2407 8.12978C12.2286 8.13962 12.2161 8.14873 12.2014 8.16003C12.1277 8.07511 12.0535 7.99092 11.9798 7.90709C11.7651 7.66291 11.5427 7.41033 11.3361 7.15485C11.2113 7.00068 11.0949 6.83302 10.9823 6.67084C10.9026 6.5564 10.823 6.44196 10.7397 6.33043C10.6883 6.26191 10.6832 6.23348 10.7397 6.15112C11.779 4.64479 13.1486 3.40599 14.8096 2.46823C15.6258 2.00682 16.4034 1.68281 17.1767 1.46851ZM9.415 5.00415C9.4495 5.08834 9.48363 5.17363 9.52069 5.25454C10.175 6.69926 11.1476 7.98399 12.494 9.1838C13.5645 10.1383 14.8116 10.9565 16.3052 11.6858C16.372 11.7183 16.4421 11.7908 16.4729 11.8582C16.8307 12.6509 17.0869 13.5009 17.2748 14.5221C17.2076 14.5086 17.1416 14.4958 17.0762 14.4827C16.8406 14.4368 16.6175 14.3923 16.3988 14.3373C14.6831 13.9036 13.0519 13.0945 11.4103 11.863C10.0528 10.845 8.82085 9.60986 7.64648 8.09406C8.05054 6.95074 8.6535 5.90765 9.415 5.00415ZM24.0368 22.1395C23.1237 22.1486 22.225 21.6566 21.3596 20.6522L20.717 19.9105L20.1786 20.7309C20.1684 20.7465 19.147 22.2791 17.704 22.3611C16.7711 22.4143 15.7935 21.8428 14.8078 20.6613L14.1479 19.874L13.6084 20.7476C13.5982 20.7648 12.5449 22.4428 11.0557 22.5302C10.0927 22.5834 9.08678 21.9624 8.06325 20.6744L6.9043 21.5837C8.17995 23.1884 9.53303 24.0001 10.9302 24.0001C11.0043 24.0001 11.0788 23.9983 11.1533 23.9935C12.5867 23.9053 13.6723 22.9701 14.2903 22.2722C15.4126 23.3765 16.5921 23.8981 17.8005 23.8248C19.1848 23.7417 20.2399 22.8834 20.8451 22.239C21.8455 23.1677 22.9299 23.6222 24.0647 23.6058C26.2857 23.5635 27.8252 21.665 27.8894 21.5844L26.7319 20.674C26.7206 20.6882 25.544 22.1111 24.0368 22.1395Z" fill="white"/>
</svg>
