<svg width="24" height="24" viewBox="0 0 24 24" fill="none" xmlns="http://www.w3.org/2000/svg">
<path fill-rule="evenodd" clip-rule="evenodd" d="M19.1798 19.588C18.1121 20.5979 16.8498 21.3654 15.4893 21.8529C15.4629 21.5466 15.5409 21.3501 15.7871 21.1807C16.9163 20.4025 18.0303 19.6029 19.1481 18.8091C19.5028 18.5575 19.5288 18.5529 19.9559 18.7727C19.8744 18.8676 19.7896 18.9601 19.7051 19.053C19.6646 19.097 19.6252 19.1418 19.5843 19.185C19.4902 19.2836 19.3943 19.3796 19.2972 19.4744C19.2582 19.5127 19.2192 19.5505 19.1798 19.588ZM20.8224 6.45142C21.8641 8.12246 22.3924 9.90784 22.4352 11.8385C22.4131 11.8477 22.3909 11.8565 22.3687 11.8653C22.1692 11.4768 21.9237 11.1051 21.7796 10.6975C21.3771 9.5568 21.0311 8.39587 20.6301 7.25482C20.5143 6.92443 20.6431 6.71756 20.8224 6.45142ZM16.7114 13.1217C16.4679 13.0506 16.3257 12.8938 16.25 12.664C15.8681 11.4989 15.5019 10.328 15.0978 9.17088C14.9636 8.78811 15.0405 8.47837 15.2553 8.18202C15.6215 7.67688 16.0038 7.18322 16.3804 6.68496C16.4645 6.57369 16.5478 6.46127 16.6388 6.35573C16.8357 6.12553 17.1671 6.04446 17.4378 6.15459C18.2673 6.49224 19.098 6.82645 19.9238 7.17213C20.0113 7.20884 20.1053 7.29985 20.1378 7.38741C20.5197 8.4126 20.8905 9.44199 21.2633 10.4702C21.2854 10.531 21.2996 10.5949 21.3298 10.7012C21.2357 10.9628 21.1654 11.2694 21.0224 11.5367C20.6172 12.2939 20.1829 13.0353 19.759 13.7821C19.6764 13.9282 19.5667 13.9752 19.3912 13.9217C18.5001 13.6479 17.6067 13.3821 16.7114 13.1217ZM11.8042 16.023C10.7209 15.2154 9.62676 14.4223 8.53726 13.6231C8.48412 13.5845 8.43442 13.5405 8.38664 13.495C8.18403 13.305 8.11904 13.1111 8.22225 12.8163C8.63971 11.6247 9.02352 10.4217 9.42071 9.22332C9.52202 8.91741 9.70016 8.79008 10.0251 8.78969C10.701 8.78855 11.3765 8.78931 12.0524 8.78931V8.79428H13.9691C14.286 8.79428 14.4745 8.90097 14.5708 9.20191C14.9871 10.5013 15.3924 11.8048 15.7922 13.1096C15.8125 13.1749 15.7674 13.2965 15.7116 13.3428C15.356 13.6384 14.9898 13.9214 14.6259 14.2074C13.8583 14.8108 13.0868 15.4096 12.3242 16.0203C12.1372 16.1702 11.9988 16.1683 11.8042 16.023ZM8.27226 20.6472C7.11968 19.7967 5.96748 18.9448 4.7996 18.115C4.52245 17.9181 4.45517 17.6737 4.47352 17.3781C4.52321 16.5789 4.58552 15.7809 4.63828 14.9817C4.66122 14.6295 4.78125 14.4341 5.11843 14.3374C5.91549 14.1072 6.71637 13.8915 7.51955 13.6838C7.60824 13.6605 7.73974 13.6976 7.81735 13.7534C9.04333 14.6406 10.2624 15.5369 11.4861 16.4271C11.6876 16.5736 11.7839 16.759 11.7816 17.0064C11.7778 17.4251 11.7805 17.8439 11.7805 18.263H11.8046C11.8046 18.6821 11.8065 19.1012 11.8042 19.5195C11.803 19.7631 11.6929 19.9118 11.4659 19.9722C10.53 20.2212 9.59229 20.4659 8.65684 20.7179C8.51081 20.7573 8.3988 20.7405 8.27226 20.6472ZM3.51108 6.64676C2.99462 8.09105 2.49383 9.54069 2.00068 10.9926C1.92575 11.2129 1.80572 11.3593 1.56641 11.4698C1.67956 9.52271 2.27707 7.77022 3.35549 6.15845C3.53287 6.29802 3.59213 6.42038 3.51108 6.64676ZM3.94393 7.11439C3.99057 7.00044 4.10219 6.86851 4.21306 6.83257C4.97189 6.58172 5.73875 6.35458 6.50332 6.12056C6.65699 6.07391 6.81258 6.03337 6.92994 6.00049C7.20481 6.03452 7.40971 6.09914 7.5523 6.3129C8.02901 7.02797 8.51795 7.73463 8.99275 8.45123C9.04053 8.52273 9.05773 8.64892 9.03136 8.73037C8.62958 9.96625 8.21939 11.1995 7.80805 12.4319C7.6517 12.9015 7.36651 13.2135 6.85081 13.3298C6.16423 13.4846 5.49218 13.703 4.8098 13.8781C4.69626 13.9075 4.53379 13.8953 4.44281 13.8322C4.24096 13.6919 4.02841 13.5351 3.89423 13.3351C3.44887 12.6709 3.03754 11.9837 2.61053 11.3073C2.48628 11.11 2.56503 10.9207 2.63002 10.7372C2.91176 9.9414 3.20192 9.1487 3.48863 8.35448C3.63849 7.94035 3.77725 7.52164 3.94393 7.11439ZM9.21216 2.80111C8.6739 3.51656 8.12953 4.22742 7.58592 4.93867C7.37452 5.21629 7.09622 5.40327 6.76516 5.50346C6.00709 5.73328 5.24597 5.952 4.48828 6.18182C4.36174 6.22044 4.28261 6.21394 4.18972 6.1019C3.67555 5.48205 3.78526 5.5482 4.20616 5.07786C5.47725 3.65728 7.02397 2.65465 8.84172 2.07457C9.16131 1.97247 9.27332 2.04971 9.30773 2.38889C9.31117 2.4256 9.31155 2.46269 9.31308 2.4994C9.32302 2.50361 9.33296 2.5082 9.3429 2.51317C9.30008 2.60953 9.2737 2.71851 9.21216 2.80111ZM15.1546 2.38951C15.3289 2.1333 15.3132 2.12374 15.6022 2.2312C17.4353 2.91414 18.9598 4.02308 20.1778 5.55187C20.2554 5.649 20.2978 5.77404 20.351 5.87537C20.3013 6.08033 20.2669 6.25241 20.2164 6.41951C20.1766 6.5522 20.0845 6.60918 19.9438 6.5545C19.0485 6.20652 18.1467 5.87384 17.2606 5.50407C16.8638 5.33812 16.5602 5.03832 16.3232 4.66473C15.9574 4.08846 15.5736 3.52253 15.1737 2.96959C15.0219 2.75928 15.0101 2.6025 15.1546 2.38951ZM10.0194 1.77675C11.5314 1.4934 13.0223 1.53049 14.5032 1.89988C14.5564 1.91288 14.6332 2.00962 14.6256 2.05398C14.6045 2.17252 14.6114 2.34039 14.4214 2.33924C14.2089 2.33809 13.9959 2.32509 13.7834 2.31821C12.6465 2.28074 11.5096 2.24211 10.3727 2.20732C9.99076 2.19585 9.98923 2.19852 10.0194 1.77675ZM10.1625 2.75295C11.5502 2.76939 12.9382 2.79845 14.3263 2.81834C14.4658 2.81987 14.5503 2.8604 14.6283 2.98162C15.1528 3.79687 15.6865 4.60601 16.2167 5.41782C16.3723 5.65605 16.365 5.85184 16.1888 6.08395C15.6949 6.73248 15.1945 7.37604 14.709 8.03069C14.587 8.19512 14.4525 8.26892 14.251 8.26778C13.5606 8.26128 12.8706 8.2651 12.1802 8.2651V8.2781C11.5708 8.2781 10.9588 8.24445 10.3521 8.28728C9.76376 8.32934 9.37727 8.02993 9.07336 7.61274C8.65514 7.03763 8.29044 6.42313 7.89554 5.8308C7.79539 5.68053 7.78965 5.54439 7.89631 5.4075C8.55422 4.56165 9.21136 3.71504 9.87845 2.87684C9.93655 2.80419 10.0665 2.7518 10.1625 2.75295ZM1.64251 13.3823C1.60084 13.0611 1.56873 12.7376 1.55496 12.4083C1.54426 12.1422 1.84703 11.8152 2.10851 11.8259C2.18114 11.829 2.2748 11.8894 2.318 11.9521C2.89334 12.785 3.46906 13.6178 4.02337 14.4644C4.11091 14.5983 4.122 14.8009 4.11894 14.9715C4.11167 15.3451 4.0723 15.7179 4.03369 16.2731C4.01916 16.5014 3.9882 16.9113 3.96947 17.3216C3.96297 17.4719 3.91327 17.5534 3.76189 17.6058C3.48817 17.701 3.3689 17.7499 3.28977 17.732C2.4411 16.4502 1.865 14.9726 1.64251 13.3823ZM3.66797 18.2696C3.83082 18.1629 3.97571 18.1227 4.1527 18.26C5.41271 19.2362 6.67539 20.209 7.94343 21.1742C8.12769 21.3145 8.14871 21.4763 8.11239 21.6939C6.34242 20.9723 4.80756 19.78 3.66797 18.2696ZM14.9797 20.7102C14.2603 20.5037 13.5462 20.2789 12.8359 20.0433C12.4058 19.9011 12.3194 19.7584 12.3198 19.316C12.3198 18.9417 12.3198 18.5669 12.3198 18.1926H12.303C12.303 17.7662 12.2892 17.3394 12.3118 16.9146C12.3187 16.7877 12.397 16.6267 12.4957 16.5483C13.6444 15.6328 14.8073 14.7361 15.9553 13.8203C16.182 13.6398 16.4179 13.5867 16.6725 13.6574C17.4573 13.8758 18.2372 14.1105 19.017 14.3457C19.1952 14.3996 19.3133 14.6107 19.2999 14.7943C19.2284 15.7827 19.1577 16.7712 19.0885 17.7601C19.064 18.1111 18.9669 18.4086 18.6428 18.6162C17.5804 19.2977 16.5318 20.0009 15.4652 20.6762C15.3429 20.7538 15.1288 20.753 14.9797 20.7102ZM20.4459 18.1486C20.3114 18.3226 20.1172 18.3528 19.8335 18.2304C19.6458 18.1498 19.5235 18.0347 19.5533 17.7941C19.6718 16.8332 19.7578 15.8677 19.8974 14.9102C19.9425 14.6008 20.0797 14.2903 20.2353 14.0146C20.6956 13.197 21.186 12.3959 21.6868 11.552C21.9877 11.9845 22.2721 12.3944 22.3669 12.8808C22.4151 13.1286 22.3486 13.4047 22.3069 13.6636C22.0488 15.2711 21.4475 16.7387 20.5067 18.0653C20.4865 18.0932 20.4662 18.1211 20.4459 18.1486ZM12.5408 22.4475C12.5366 22.4475 12.5324 22.4475 12.5278 22.4478C12.3294 22.4585 12.131 22.4597 11.9326 22.4589C11.806 22.4578 11.6795 22.4551 11.5541 22.449C11.5055 22.4475 11.457 22.444 11.4084 22.4413C10.4604 22.3855 9.54634 22.2008 8.68085 21.906C8.6453 21.8697 8.63192 21.8219 8.64186 21.7538C8.66365 21.6085 8.66518 21.4582 8.70838 21.3198C8.72749 21.259 8.82115 21.199 8.89226 21.1798C9.77724 20.942 10.6683 20.7244 11.5495 20.4732C11.8615 20.3841 12.139 20.3979 12.4441 20.4946C13.2965 20.7649 14.1574 21.0085 15.0333 21.2682C15.0053 21.5041 14.9897 21.7156 14.9499 21.9232C14.9404 21.9729 14.8884 22.0337 14.8371 22.0624C14.7951 22.0742 14.7534 22.0876 14.7114 22.0991C13.9866 22.2884 13.2633 22.4069 12.5408 22.4475ZM23.9799 11.2809C23.6618 5.68008 19.0461 -0.0790972 11.8649 0.000822324C8.6786 0.0325607 5.69679 1.29559 3.4696 3.55667C1.2493 5.81086 0.0172027 8.81147 0 12.0063V12.0167C0.0279067 15.2632 1.30359 18.2921 3.59232 20.5463C5.85467 22.7744 8.84795 24 12.0247 24H12.0587C15.3112 23.9912 18.4712 22.6115 20.7278 20.2159C23.0146 17.7885 24.1695 14.6154 23.9799 11.2809Z" fill="white"/>
</svg>
