<svg width="20" height="20" viewBox="0 0 20 20" fill="none" xmlns="http://www.w3.org/2000/svg">
<path fill-rule="evenodd" clip-rule="evenodd" d="M14.1543 12.8833C14.4648 12.8833 14.7637 13.0068 14.9824 13.2271L19.6582 17.9111C20.1152 18.3687 20.1133 19.1094 19.6562 19.5667L19.5664 19.657C19.1094 20.114 18.3691 20.1145 17.9102 19.6577L13.2266 14.9832C13.0078 14.7634 12.8828 14.4653 12.8828 14.1543V13.7148L12.5664 13.3867C11.2324 14.5347 9.49805 15.2256 7.61328 15.2256C3.4082 15.2256 0 11.8174 0 7.61279C0 3.4082 3.4082 0 7.61328 0C11.8184 0 15.2266 3.4082 15.2266 7.61279C15.2266 9.49854 14.5352 11.2319 13.3867 12.5669L13.7148 12.8833H14.1543ZM1.31836 7.61182C1.31836 11.0945 4.12891 13.9058 7.61133 13.9058C11.0957 13.9058 13.9062 11.0945 13.9062 7.61182C13.9062 4.12939 11.0957 1.31812 7.61133 1.31812C4.12891 1.31812 1.31836 4.12939 1.31836 7.61182Z" fill="white"/>
</svg>
