<svg width="34" height="24" viewBox="0 0 34 24" fill="none" xmlns="http://www.w3.org/2000/svg">
<path fill-rule="evenodd" clip-rule="evenodd" d="M20.4343 19.2531C14.1134 22.3683 7.48873 21.8702 5.35547 18.2042L10.2475 15.7929C11.078 17.1346 12.7854 17.6585 14.2187 16.9523L22.9102 12.6684C24.3431 11.9623 25.0023 10.2722 24.488 8.7745L29.0003 6.55078C30.4901 10.5342 26.7552 16.1376 20.4343 19.2531ZM11.7684 11.7776L20.4599 7.49409C21.5502 6.95669 22.843 7.33579 23.5037 8.32864L21.6482 9.2429L21.0447 7.96937L20.424 8.27512L21.0275 9.54903L19.4566 10.3233L18.8531 9.04905L18.2324 9.35517L18.8359 10.6295L17.2654 11.4034L16.6619 10.1295L16.0408 10.4352L16.6443 11.7091L15.0738 12.4834L14.4707 11.2091L13.8496 11.5153L14.4531 12.7892L12.8826 13.5635L12.2791 12.2896L11.6584 12.5953L12.2619 13.8692L10.5182 14.7288C10.1664 13.5837 10.6785 12.3146 11.7684 11.7776ZM22.6103 12.0352L13.9188 16.3191C12.8289 16.8561 11.5357 16.477 10.875 15.4838L12.6187 14.6246L13.2577 15.9733L13.8784 15.6672L13.2397 14.3184L14.8102 13.5445L15.4489 14.8933L16.07 14.5875L15.431 13.2388L17.0015 12.4645L17.6405 13.8132L18.2612 13.5071L17.6222 12.1583L19.1931 11.3844L19.8317 12.7332L20.4525 12.427L19.8138 11.0787L21.3843 10.3044L22.0233 11.6531L22.644 11.3474L22.0054 9.99862L23.8609 9.08398C24.2131 10.2291 23.7006 11.4978 22.6103 12.0352ZM13.5646 4.74701C19.8855 1.63186 26.5102 2.12997 28.6431 5.796L24.1308 8.01934C23.3006 6.67808 21.5929 6.15452 20.1599 6.8607L11.4684 11.1446C10.0351 11.8508 9.37626 13.5405 9.89059 15.0382L4.99859 17.449C3.5088 13.466 7.24337 7.86254 13.5646 4.74701ZM30.3478 5.42128C29.2025 3.00296 26.7024 1.4641 23.3083 1.08799C20.0583 0.727976 16.3388 1.48019 12.8357 3.20692C9.33224 4.93328 6.4429 7.43805 4.69924 10.2594C2.87891 13.2058 2.50692 16.16 3.65187 18.5783C4.79756 20.997 7.2973 22.5359 10.6914 22.912C13.9418 23.272 17.6609 22.5198 21.1644 20.7931C24.6678 19.0663 27.5572 16.562 29.3008 13.7406C31.1212 10.7942 31.4932 7.83961 30.3478 5.42128Z" fill="white"/>
</svg>
