<svg width="34" height="24" viewBox="0 0 34 24" fill="none" xmlns="http://www.w3.org/2000/svg">
<path fill-rule="evenodd" clip-rule="evenodd" d="M9.28363 20.5589C7.37843 19.9687 5.90086 19.013 4.95508 17.7886C6.29554 18.8083 8.48709 19.3477 11.1612 19.3477C13.4364 19.3473 16.0594 18.9586 18.7956 18.1474C22.336 17.0978 25.4956 15.4928 27.6921 13.6285C28.8701 12.6285 29.6988 11.6103 30.1609 10.6248C29.561 14.5639 25.2726 18.5924 19.3536 20.3473C15.8102 21.3981 12.2335 21.473 9.28363 20.5589ZM14.6449 3.6527C16.5463 3.08924 18.4568 2.80615 20.2753 2.80615C21.8457 2.80615 23.3478 3.0174 24.7152 3.44068C26.4856 3.98938 27.8878 4.85341 28.8362 5.95548C27.9336 5.37765 26.7052 4.97262 25.194 4.77225C22.3653 4.39712 18.8583 4.76875 15.3183 5.8184C9.36904 7.58217 4.92042 10.7369 3.80078 13.6894C3.96479 12.138 4.71588 10.5234 6.01847 8.98364C8.03768 6.5966 11.1011 4.70312 14.6449 3.6527ZM29.9157 8.75049C29.9676 10.0506 29.0317 11.602 27.2666 13.1001C25.1391 14.9058 22.065 16.4642 18.611 17.4882C12.1061 19.417 5.92271 18.8373 4.50195 16.2848L29.9157 8.75049ZM22.9151 5.31567C23.6829 5.31567 24.4177 5.36111 25.1097 5.45314C27.6368 5.78788 29.328 6.74044 29.7871 8.07395L4.25967 15.6416C3.59455 12.6647 8.68026 8.50111 15.5057 6.47755C18.0873 5.71254 20.6444 5.31567 22.9151 5.31567ZM25.2259 1.71042C21.9545 0.696888 18.0229 0.769893 14.156 1.91623C10.2892 3.06257 6.92649 5.15176 4.68721 7.79937C2.3559 10.5561 1.5014 13.5975 2.28128 16.3635C3.06154 19.1292 5.3671 21.2339 8.77412 22.2894C10.3043 22.7639 11.9789 23 13.7239 23C15.7094 23 17.7861 22.694 19.844 22.0839C23.7108 20.9376 27.0735 18.8484 29.3124 16.2008C31.6441 13.4441 32.4986 10.4027 31.7187 7.63666C30.9385 4.871 28.6329 2.76628 25.2259 1.71042Z" fill="white"/>
</svg>
